<?xml version="1.0" encoding="UTF-8"?>
<!DOCTYPE svg PUBLIC "-//W3C//DTD SVG 1.1//EN" "http://www.w3.org/Graphics/SVG/1.1/DTD/svg11.dtd">
<svg xmlns="http://www.w3.org/2000/svg" version="1.1" width="634px" height="639px" style="shape-rendering:geometricPrecision; text-rendering:geometricPrecision; image-rendering:optimizeQuality; fill-rule:evenodd; clip-rule:evenodd" xmlns:xlink="http://www.w3.org/1999/xlink">
<g><path style="opacity:1" fill="#2d3e50" d="M -0.5,-0.5 C 210.833,-0.5 422.167,-0.5 633.5,-0.5C 633.5,212.5 633.5,425.5 633.5,638.5C 422.167,638.5 210.833,638.5 -0.5,638.5C -0.5,425.5 -0.5,212.5 -0.5,-0.5 Z"/></g>
<g><path style="opacity:1" fill="#314253" d="M 113.5,8.5 C 116.487,8.99782 119.487,9.49782 122.5,10C 124.036,11.5994 124.536,13.4328 124,15.5C 121.488,17.7092 119.322,20.2092 117.5,23C 113.191,24.1776 109.524,26.3443 106.5,29.5C 105.899,34.6012 103.066,37.6012 98,38.5C 96.5272,38.0969 95.1939,37.4303 94,36.5C 78.2927,46.7537 61.9594,56.087 45,64.5C 43.7753,64.1377 42.6086,63.6377 41.5,63C 39.8125,60.7321 37.9791,58.5655 36,56.5C 35.1928,49.8044 38.0261,47.1377 44.5,48.5C 47.4724,46.0315 50.8057,44.1982 54.5,43C 54.9731,40.1399 56.3064,37.8065 58.5,36C 61.8891,36.1873 65.2224,36.0206 68.5,35.5C 71.2002,32.5979 73.5335,29.4312 75.5,26C 78.025,25.1041 80.1917,25.6041 82,27.5C 83.8873,25.114 86.3873,23.9473 89.5,24C 90.1667,23 90.8333,22 91.5,21C 95.2574,19.7433 98.5908,17.7433 101.5,15C 103.167,14.6667 104.833,14.3333 106.5,14C 108.469,11.5111 110.802,9.67777 113.5,8.5 Z"/></g>
<g><path style="opacity:1" fill="#314253" d="M 563.5,8.5 C 566.487,8.99782 569.487,9.49782 572.5,10C 574.036,11.5994 574.536,13.4328 574,15.5C 571.488,17.7092 569.322,20.2092 567.5,23C 563.191,24.1776 559.524,26.3443 556.5,29.5C 555.899,34.6012 553.066,37.6012 548,38.5C 546.527,38.0969 545.194,37.4303 544,36.5C 528.293,46.7537 511.959,56.087 495,64.5C 493.775,64.1377 492.609,63.6377 491.5,63C 489.812,60.7321 487.979,58.5655 486,56.5C 485.193,49.8044 488.026,47.1377 494.5,48.5C 497.472,46.0315 500.806,44.1982 504.5,43C 504.973,40.1399 506.306,37.8065 508.5,36C 511.889,36.1873 515.222,36.0206 518.5,35.5C 521.2,32.5979 523.534,29.4312 525.5,26C 528.025,25.1041 530.192,25.6041 532,27.5C 533.887,25.114 536.387,23.9473 539.5,24C 540.167,23 540.833,22 541.5,21C 545.257,19.7433 548.591,17.7433 551.5,15C 553.167,14.6667 554.833,14.3333 556.5,14C 558.469,11.5111 560.802,9.67777 563.5,8.5 Z"/></g>
<g><path style="opacity:1" fill="#324354" d="M 221.5,31.5 C 208.738,36.0736 196.738,42.2402 185.5,50C 186.308,50.3076 186.975,50.8076 187.5,51.5C 184.226,52.4702 181.226,53.9702 178.5,56C 176.965,56.4962 175.465,56.3295 174,55.5C 167.53,58.8243 160.696,60.8243 153.5,61.5C 152.855,60.1882 151.855,59.1882 150.5,58.5C 148.772,54.4566 149.438,50.9566 152.5,48C 154.235,47.3486 155.902,47.5153 157.5,48.5C 161.167,46.5 164.833,44.5 168.5,42.5C 168.67,38.1674 170.836,35.5007 175,34.5C 176.808,36.3959 178.975,36.8959 181.5,36C 182.685,34.647 184.019,33.4803 185.5,32.5C 185.866,28.403 188.032,26.0697 192,25.5C 193.326,25.7549 194.326,26.4216 195,27.5C 205.468,21.3375 215.968,15.1708 226.5,9C 229.833,8.88585 233.166,9.21919 236.5,10C 237.576,11.7261 237.743,13.5594 237,15.5C 234.303,17.9108 232.136,20.7441 230.5,24C 228.423,24.1922 226.423,24.6922 224.5,25.5C 223.63,27.5259 222.13,28.8592 220,29.5C 219.472,30.816 219.972,31.4827 221.5,31.5 Z"/></g>
<g><path style="opacity:1" fill="#6d7a86" d="M 321.5,18.5 C 318.272,17.5863 314.939,17.2529 311.5,17.5C 317.61,15.8399 323.944,15.3399 330.5,16C 327.372,16.8412 324.372,17.6746 321.5,18.5 Z"/></g>
<g><path style="opacity:1" fill="#e7e9eb" d="M 311.5,17.5 C 314.939,17.2529 318.272,17.5863 321.5,18.5C 323.647,20.4695 325.98,22.3029 328.5,24C 325.167,24.3333 321.833,24.6667 318.5,25C 315.454,27.174 312.12,27.8407 308.5,27C 311.135,25.8361 313.802,24.6694 316.5,23.5C 311.791,21.8309 307.124,20.1642 302.5,18.5C 305.428,17.5159 308.428,17.1826 311.5,17.5 Z"/></g>
<g><path style="opacity:1" fill="#edeff0" d="M 438.5,49.5 C 438.167,50.1667 437.833,50.8333 437.5,51.5C 435.418,51.472 433.584,52.1387 432,53.5C 427.63,45.9045 421.13,41.7378 412.5,41C 407.515,39.0612 402.515,37.2279 397.5,35.5C 397.083,34.8761 396.416,34.5427 395.5,34.5C 393.944,35.5471 392.277,36.2137 390.5,36.5C 389.5,36.5 388.5,36.5 387.5,36.5C 388.32,32.8024 386.987,30.4691 383.5,29.5C 379.535,28.4701 375.535,28.3035 371.5,29C 367.797,30.8998 363.963,32.3998 360,33.5C 359.51,32.2068 359.343,30.8734 359.5,29.5C 357.181,28.833 354.847,28.6664 352.5,29C 348.876,31.8191 344.876,33.4858 340.5,34C 342.976,32.6912 344.976,30.8579 346.5,28.5C 345.975,27.8076 345.308,27.3076 344.5,27C 340.831,27.082 337.331,27.9153 334,29.5C 332.033,29.4581 330.199,28.9581 328.5,28C 336.186,24.8818 344.019,22.3818 352,20.5C 355.207,20.7414 358.374,21.2414 361.5,22C 359.699,22.3173 359.366,22.984 360.5,24C 370.882,24.1297 381.216,24.7964 391.5,26C 396.699,28.4308 401.699,31.0974 406.5,34C 413.571,36.8142 420.904,38.4808 428.5,39C 429.926,41.7733 431.26,44.6066 432.5,47.5C 434.304,48.7681 436.304,49.4348 438.5,49.5 Z"/></g>
<g><path style="opacity:1" fill="#e1e3e5" d="M 309.5,31.5 C 311.842,31.5041 313.842,32.3375 315.5,34C 312.833,34.6667 310.167,34.6667 307.5,34C 308.381,33.2917 309.047,32.4584 309.5,31.5 Z"/></g>
<g><path style="opacity:1" fill="#9aa3ac" d="M 397.5,35.5 C 395.723,35.7863 394.056,36.4529 392.5,37.5C 391.584,37.4573 390.917,37.1239 390.5,36.5C 390.917,37.1239 391.584,37.4573 392.5,37.5C 394.056,36.4529 395.723,35.7863 397.5,35.5 Z"/></g>
<g><path style="opacity:1" fill="#cbcfd3" d="M 328.5,37.5 C 332.276,37.4692 332.443,38.1359 329,39.5C 327.316,39.3166 327.15,38.6499 328.5,37.5 Z"/></g>
<g><path style="opacity:1" fill="#828c97" d="M 438.5,49.5 C 447.662,50.9342 447.329,51.6009 437.5,51.5C 437.833,50.8333 438.167,50.1667 438.5,49.5 Z"/></g>
<g><path style="opacity:1" fill="#eff0f2" d="M 465.5,74.5 C 465.5,74.1667 465.5,73.8333 465.5,73.5C 465.703,71.6096 465.037,70.1096 463.5,69C 458.5,65.3333 453.5,61.6667 448.5,58C 453.363,57.1915 458.03,57.8582 462.5,60C 470.715,67.7878 479.382,75.1211 488.5,82C 480.911,79.5539 473.245,77.0539 465.5,74.5 Z"/></g>
<g><path style="opacity:1" fill="#c4c9ce" d="M 429.5,58.5 C 432.797,58.3287 433.131,58.9954 430.5,60.5C 429.702,60.0431 429.369,59.3764 429.5,58.5 Z"/></g>
<g><path style="opacity:1" fill="#b4bbc1" d="M 465.5,73.5 C 465.5,73.8333 465.5,74.1667 465.5,74.5C 459.806,73.9876 454.806,71.8209 450.5,68C 455.392,69.7639 460.392,71.5972 465.5,73.5 Z"/></g>
<g><path style="opacity:1" fill="#314253" d="M 124.5,83.5 C 125.135,86.4929 125.301,89.4929 125,92.5C 123.453,94.887 121.287,96.2204 118.5,96.5C 118.657,95.1266 118.49,93.7932 118,92.5C 112.627,97.3771 107.127,102.044 101.5,106.5C 98.5313,106.731 95.5313,106.231 92.5,105C 77.0723,114.889 61.0723,124.056 44.5,132.5C 41.542,130.044 38.7087,127.378 36,124.5C 35.0715,120.088 36.7382,117.088 41,115.5C 41.8732,115.735 42.7065,116.069 43.5,116.5C 47.3738,114.132 51.3738,111.966 55.5,110C 56.1667,108 56.8333,106 57.5,104C 58.8721,103.598 60.2054,103.098 61.5,102.5C 63.3313,103.929 65.3313,104.429 67.5,104C 69.208,101.957 71.208,100.29 73.5,99C 72.5004,96.9093 73.1671,95.2426 75.5,94C 77.7135,93.3744 79.8801,93.5411 82,94.5C 84.3366,93.1924 86.8366,92.1924 89.5,91.5C 90.7481,89.5414 92.4148,88.0414 94.5,87C 98.2454,84.7962 102.245,83.1295 106.5,82C 110.784,76.5957 116.117,75.2624 122.5,78C 124.155,79.4443 124.822,81.2776 124.5,83.5 Z"/></g>
<g><path style="opacity:1" fill="#314253" d="M 226.5,76.5 C 229.106,77.1359 231.606,77.1359 234,76.5C 238.667,79.5 238.667,82.5 234,85.5C 233.727,87.1012 233.227,88.6012 232.5,90C 227.697,91.4841 223.53,93.9841 220,97.5C 219.27,101.896 216.77,104.73 212.5,106C 210.167,105.667 207.833,105.333 205.5,105C 190.224,114.645 174.558,123.812 158.5,132.5C 151.984,129.864 149.151,125.197 150,118.5C 151.92,115.562 154.42,114.895 157.5,116.5C 161.286,113.941 165.286,111.941 169.5,110.5C 168.773,106.062 170.607,103.395 175,102.5C 178.567,105.563 181.401,105.063 183.5,101C 184.448,100.517 185.448,100.351 186.5,100.5C 186.123,94.05 188.956,92.05 195,94.5C 200.912,91.4473 206.746,88.114 212.5,84.5C 214.667,83.2081 217,82.3747 219.5,82C 221.54,79.6642 223.873,77.8308 226.5,76.5 Z"/></g>
<g><path style="opacity:1" fill="#314253" d="M 338.5,76.5 C 341.786,76.9288 344.953,76.9288 348,76.5C 349.563,77.7252 350.73,79.2252 351.5,81C 348.657,84.4919 345.991,88.1586 343.5,92C 341.527,92.4955 339.527,92.6621 337.5,92.5C 337.17,95.1094 335.67,96.7761 333,97.5C 332.372,101.467 330.205,104.301 326.5,106C 324.191,106.756 322.191,106.256 320.5,104.5C 305.057,113.938 289.39,123.104 273.5,132C 272.167,132.667 270.833,132.667 269.5,132C 265.36,128.613 263.193,124.446 263,119.5C 264.746,116.19 267.246,115.19 270.5,116.5C 274.801,114.014 279.135,111.514 283.5,109C 282.167,107.667 282.167,106.333 283.5,105C 285.034,104.077 286.701,103.577 288.5,103.5C 290.524,104.021 292.524,104.188 294.5,104C 297.68,101.756 299.68,98.7563 300.5,95C 303.088,93.3137 305.755,93.1471 308.5,94.5C 310.667,93.2081 313,92.3747 315.5,92C 319.659,88.7533 323.992,85.7533 328.5,83C 332.489,81.8763 335.822,79.7096 338.5,76.5 Z"/></g>
<g><path style="opacity:1" fill="#314253" d="M 453.5,76.5 C 456.813,77.0448 460.146,77.5448 463.5,78C 464.081,78.8926 464.415,79.8926 464.5,81C 461.989,84.1743 459.656,87.5076 457.5,91C 455.608,91.9734 453.608,92.6401 451.5,93C 449.957,94.8783 448.124,96.3783 446,97.5C 445.314,102.699 442.314,105.699 437,106.5C 435.699,105.107 434.199,104.607 432.5,105C 417.642,114.443 402.309,123.443 386.5,132C 378.809,130.943 375.642,126.443 377,118.5C 378.588,115.691 380.755,115.025 383.5,116.5C 388.128,114.519 392.461,112.019 396.5,109C 395.5,106.909 396.167,105.243 398.5,104C 401.54,103.68 404.54,103.68 407.5,104C 410.869,101.207 413.536,97.8742 415.5,94C 418.025,93.1041 420.192,93.6041 422,95.5C 426.64,93.4643 430.807,90.631 434.5,87C 438.245,84.7962 442.245,83.1295 446.5,82C 448.444,79.5422 450.778,77.7089 453.5,76.5 Z"/></g>
<g><path style="opacity:1" fill="#324354" d="M 527.5,114.5 C 524.925,113.272 522.592,111.605 520.5,109.5C 520.167,109.667 519.833,109.833 519.5,110C 521.373,111.704 523.04,113.537 524.5,115.5C 514.497,121.171 504.497,126.838 494.5,132.5C 491.542,130.044 488.709,127.378 486,124.5C 485.403,117.429 488.57,114.596 495.5,116C 498.166,113.665 501.166,111.831 504.5,110.5C 505.474,108.257 505.808,105.924 505.5,103.5C 507.148,104.81 508.814,106.143 510.5,107.5C 511.666,105.833 511.666,104.166 510.5,102.5C 512.745,103.635 515.078,104.135 517.5,104C 519.208,101.957 521.208,100.29 523.5,99C 522.5,96.9093 523.167,95.2426 525.5,94C 527.713,93.3744 529.88,93.5411 532,94.5C 534.337,93.1924 536.837,92.1924 539.5,91.5C 540.748,89.5414 542.415,88.0414 544.5,87C 548.245,84.7962 552.245,83.1295 556.5,82C 561.604,75.7626 567.437,74.9293 574,79.5C 575.238,82.9257 574.071,84.5923 570.5,84.5C 570.657,85.8734 570.49,87.2068 570,88.5C 565.379,91.2858 560.879,94.2858 556.5,97.5C 555.77,99.3413 555.103,101.175 554.5,103C 552.13,104.185 549.797,105.351 547.5,106.5C 545.95,105.268 544.283,104.768 542.5,105C 537.674,108.596 532.674,111.763 527.5,114.5 Z"/></g>
<g><path style="opacity:1" fill="#bcc2c8" d="M 477.5,82.5 C 477.56,81.9569 477.893,81.6236 478.5,81.5C 481.059,83.2331 483.725,84.7331 486.5,86C 483.084,86.127 480.084,84.9603 477.5,82.5 Z"/></g>
<g><path style="opacity:1" fill="#e4e6e8" d="M 510.5,102.5 C 511.666,104.166 511.666,105.833 510.5,107.5C 508.814,106.143 507.148,104.81 505.5,103.5C 505.504,98.9711 503.504,95.4711 499.5,93C 505.093,93.7482 508.759,96.9149 510.5,102.5 Z"/></g>
<g><path style="opacity:1" fill="#f6f7f7" d="M 78.5,159.5 C 76.8958,160.287 76.2291,161.62 76.5,163.5C 79.8802,163.179 80.7135,164.179 79,166.5C 77.5341,164.675 75.7008,164.175 73.5,165C 65.3264,170.842 61.6598,178.675 62.5,188.5C 61.8897,190.434 60.8897,192.101 59.5,193.5C 59.4392,191.561 59.4392,189.561 59.5,187.5C 58.0482,189.641 57.0482,191.975 56.5,194.5C 50.77,208.691 45.4366,223.024 40.5,237.5C 39.3516,241.981 39.1849,246.648 40,251.5C 40.813,249.564 41.313,247.564 41.5,245.5C 41.3505,244.448 41.5172,243.448 42,242.5C 44.3333,243.833 46.6667,245.167 49,246.5C 49.6099,250.236 49.2765,253.903 48,257.5C 47.2753,258.059 46.4419,258.392 45.5,258.5C 43.8333,257.833 42.1667,257.167 40.5,256.5C 38.5749,256.59 37.4083,257.59 37,259.5C 35.7258,255.01 34.0591,250.677 32,246.5C 31.6667,246.833 31.3333,247.167 31,247.5C 30.2002,263.541 30.7002,279.541 32.5,295.5C 32.3531,299.351 32.0198,303.184 31.5,307C 33.1698,310.617 34.1698,315.117 34.5,320.5C 34.6761,323.727 35.3428,326.727 36.5,329.5C 36.7662,333.571 36.4328,337.571 35.5,341.5C 38.1395,344.806 41.1395,347.806 44.5,350.5C 44.572,347.379 43.572,344.379 41.5,341.5C 42.1667,340.167 42.8333,340.167 43.5,341.5C 48.243,347.307 49.9096,353.807 48.5,361C 49.448,361.483 50.448,361.649 51.5,361.5C 52.0526,365.495 53.386,369.161 55.5,372.5C 55.6495,373.552 55.4828,374.552 55,375.5C 53.8002,371.235 51.6335,370.569 48.5,373.5C 46.8137,369.065 44.9804,364.732 43,360.5C 42.7811,361.938 42.2811,363.271 41.5,364.5C 39.0905,363.299 37.0905,361.633 35.5,359.5C 35.3334,365.588 37.8334,370.588 43,374.5C 46.0644,384.163 48.5644,393.83 50.5,403.5C 46.7336,412.912 49.7336,419.079 59.5,422C 60.6411,424.308 62.3078,426.141 64.5,427.5C 63.6933,423.68 63.6933,419.68 64.5,415.5C 66.8543,418.688 69.6876,421.355 73,423.5C 73.6667,425.5 73.6667,427.5 73,429.5C 71,427.5 69,425.5 67,423.5C 67.2508,425.955 67.7508,428.455 68.5,431C 68.3417,433.149 67.5084,434.983 66,436.5C 65.3333,438.833 65.3333,441.167 66,443.5C 71.365,447.019 76.365,451.019 81,455.5C 82.1667,458.333 83.3333,461.167 84.5,464C 84.3552,464.772 84.0219,465.439 83.5,466C 80.4818,466.499 77.4818,466.332 74.5,465.5C 73.5,465.833 72.5,466.167 71.5,466.5C 78.4396,475.61 85.9396,484.276 94,492.5C 97.3943,496.898 100.394,501.565 103,506.5C 109.222,512.356 115.722,517.856 122.5,523C 125.554,525.208 128.887,526.208 132.5,526C 129.117,524.62 127.284,522.12 127,518.5C 125.833,517.333 124.667,516.167 123.5,515C 125.211,513.867 125.711,512.367 125,510.5C 111.077,505.239 101.077,495.906 95,482.5C 97.3541,484.58 99.8541,486.08 102.5,487C 98.3063,482.806 94.1396,478.64 90,474.5C 89.2025,472.741 89.3691,471.074 90.5,469.5C 92.8814,471.098 94.0481,473.432 94,476.5C 96.1104,478.838 98.2771,478.671 100.5,476C 99.695,474.887 99.0283,473.721 98.5,472.5C 98.5,471.833 98.8333,471.5 99.5,471.5C 104.624,477.795 109.957,483.961 115.5,490C 126.557,496.25 134.223,505.417 138.5,517.5C 141.269,521.381 144.269,525.048 147.5,528.5C 150.016,532.866 153.016,536.866 156.5,540.5C 161.483,547.485 168.15,551.652 176.5,553C 173.691,554.588 173.025,556.755 174.5,559.5C 177.5,560.833 180.5,562.167 183.5,563.5C 182.277,564.614 180.944,564.781 179.5,564C 176.174,562.087 172.674,560.587 169,559.5C 168.5,559.833 168,560.167 167.5,560.5C 170.473,564.657 174.473,567.324 179.5,568.5C 177.926,569.631 176.259,569.798 174.5,569C 171.852,566.95 168.852,565.784 165.5,565.5C 167.564,569.726 170.898,572.892 175.5,575C 178.366,576.276 181.2,576.443 184,575.5C 184.617,576.449 184.451,577.282 183.5,578C 179.833,578.667 176.167,578.667 172.5,578C 167.503,574.166 162.17,570.833 156.5,568C 155.257,566.846 154.257,565.512 153.5,564C 139.552,556.853 127.219,547.52 116.5,536C 118.473,535.505 120.473,535.338 122.5,535.5C 121.564,532.041 119.564,529.207 116.5,527C 112.79,526.105 109.123,525.105 105.5,524C 100.033,515.9 93.5326,508.733 86,502.5C 79.893,495.727 74.5597,488.393 70,480.5C 69.3333,478.833 69.3333,477.167 70,475.5C 71.5045,480.359 74.6711,482.859 79.5,483C 73.6244,476.76 69.1244,469.594 66,461.5C 62.6667,456.833 59.3333,452.167 56,447.5C 56.4619,445.652 56.9619,443.652 57.5,441.5C 46.8607,428.922 38.194,414.922 31.5,399.5C 36.136,395.677 36.636,391.344 33,386.5C 32.3109,387.357 31.4776,388.023 30.5,388.5C 29.2346,382.991 29.2346,377.491 30.5,372C 29.9896,370.174 29.1562,370.007 28,371.5C 23.5515,364.489 20.8848,356.823 20,348.5C 19.5001,335.838 19.3334,323.171 19.5,310.5C 19.2322,308.901 19.5655,307.568 20.5,306.5C 21.2261,309.179 22.0594,311.846 23,314.5C 26.1127,317.282 26.7793,316.949 25,313.5C 24.6667,306.167 24.3333,298.833 24,291.5C 23.586,291.043 23.086,290.709 22.5,290.5C 20.3669,273.465 21.8669,256.798 27,240.5C 29.0478,236.9 31.2145,233.4 33.5,230C 31.5734,226.762 31.0734,223.262 32,219.5C 36,208.167 40,196.833 44,185.5C 45.164,185.835 46.4974,185.835 48,185.5C 50.822,179.185 53.4886,172.851 56,166.5C 56.3333,168.167 56.6667,169.833 57,171.5C 68.0576,147.271 82.8909,125.604 101.5,106.5C 107.127,102.044 112.627,97.3771 118,92.5C 118.49,93.7932 118.657,95.1266 118.5,96.5C 121.287,96.2204 123.453,94.887 125,92.5C 125.301,89.4929 125.135,86.4929 124.5,83.5C 127.127,82.8951 129.793,82.3951 132.5,82C 131.14,80.0624 131.473,78.3957 133.5,77C 140.707,72.2605 147.373,67.0938 153.5,61.5C 160.696,60.8243 167.53,58.8243 174,55.5C 175.465,56.3295 176.965,56.4962 178.5,56C 181.226,53.9702 184.226,52.4702 187.5,51.5C 186.975,50.8076 186.308,50.3076 185.5,50C 196.738,42.2402 208.738,36.0736 221.5,31.5C 247.553,23.6345 274.22,19.3012 301.5,18.5C 301.5,20.5 301.5,22.5 301.5,24.5C 284.804,23.7391 268.804,26.9058 253.5,34C 247.568,35.3778 241.568,36.2112 235.5,36.5C 235.5,34.8333 235.5,33.1667 235.5,31.5C 230.38,31.4765 226.213,33.4765 223,37.5C 220.692,43.0803 216.526,46.4136 210.5,47.5C 210.5,46.5 210.5,45.5 210.5,44.5C 205.751,44.8034 201.084,45.6368 196.5,47C 185.191,59.9576 171.858,69.9576 156.5,77C 161.427,72.9516 166.26,68.7849 171,64.5C 171.667,63.8333 171.667,63.1667 171,62.5C 160.931,67.7035 151.931,74.3701 144,82.5C 143.556,85.6108 142.223,88.2775 140,90.5C 132.117,96.8728 125.95,104.539 121.5,113.5C 120.359,111.579 120.192,109.579 121,107.5C 123.671,104.163 125.837,100.496 127.5,96.5C 126.998,95.479 126.332,95.3123 125.5,96C 122.322,99.733 118.989,102.566 115.5,104.5C 117.086,102.827 117.753,100.827 117.5,98.5C 116.127,98.3433 114.793,98.51 113.5,99C 110.729,102.055 109.562,105.555 110,109.5C 113.855,116.527 112.689,122.694 106.5,128C 96.7025,131.459 88.2025,136.959 81,144.5C 80.002,149.604 79.1686,154.604 78.5,159.5 Z"/></g>
<g><path style="opacity:1" fill="#e9ebed" d="M 527.5,114.5 C 530.463,118.074 533.963,121.074 538,123.5C 538.684,124.784 538.517,125.951 537.5,127C 532.193,127.013 527.859,124.847 524.5,120.5C 525.735,118.684 525.735,117.017 524.5,115.5C 523.04,113.537 521.373,111.704 519.5,110C 519.833,109.833 520.167,109.667 520.5,109.5C 522.592,111.605 524.925,113.272 527.5,114.5 Z"/></g>
<g><path style="opacity:1" fill="#e8eaec" d="M 533.5,132.5 C 537.854,134.595 542.354,136.262 547,137.5C 549.209,140.141 549.709,142.975 548.5,146C 549.88,147.925 551.38,149.759 553,151.5C 556.994,161.312 560.827,171.146 564.5,181C 562.613,181.163 561.113,180.329 560,178.5C 558.873,175.623 558.206,172.623 558,169.5C 554.379,167.602 551.212,165.102 548.5,162C 549.34,155.435 547.84,149.268 544,143.5C 541,141.833 538,140.167 535,138.5C 534.187,136.564 533.687,134.564 533.5,132.5 Z"/></g>
<g><path style="opacity:1" fill="#324354" d="M 62.5,188.5 C 61.6598,178.675 65.3264,170.842 73.5,165C 75.7008,164.175 77.5341,164.675 79,166.5C 80.7135,164.179 79.8802,163.179 76.5,163.5C 76.2291,161.62 76.8958,160.287 78.5,159.5C 79.452,160.452 80.452,161.452 81.5,162.5C 92.7948,156.367 103.962,150.034 115,143.5C 117.405,144.274 119.905,144.774 122.5,145C 124.168,146.567 124.502,148.234 123.5,150C 121.287,152.271 119.621,154.938 118.5,158C 114.19,159.579 110.19,161.746 106.5,164.5C 105.768,170.065 102.601,173.065 97,173.5C 95.6739,173.245 94.6739,172.578 94,171.5C 86.1092,176.34 78.2758,181.173 70.5,186C 68.0912,187.707 65.4245,188.54 62.5,188.5 Z"/></g>
<g><path style="opacity:1" fill="#314253" d="M 228.5,143.5 C 231.147,144.073 233.813,144.74 236.5,145.5C 237.485,147.098 237.651,148.765 237,150.5C 234.555,152.558 232.722,155.058 231.5,158C 227.71,159.729 224.044,161.729 220.5,164C 218.028,171.397 213.028,174.397 205.5,173C 190.157,182.34 174.491,191.173 158.5,199.5C 157.5,199.333 156.5,199.167 155.5,199C 154.333,196.5 152.5,194.667 150,193.5C 148.412,185.427 151.579,181.927 159.5,183C 162.767,180.865 166.101,179.031 169.5,177.5C 168.958,173.254 170.791,170.921 175,170.5C 177.154,171.252 179.32,171.419 181.5,171C 182.729,169.471 184.229,168.304 186,167.5C 186.684,161.795 189.684,159.795 195,161.5C 206.543,156.105 217.71,150.105 228.5,143.5 Z"/></g>
<g><path style="opacity:1" fill="#314253" d="M 453.5,143.5 C 456.487,143.998 459.487,144.498 462.5,145C 463.293,146.085 463.96,147.252 464.5,148.5C 461.797,150.707 460.131,153.541 459.5,157C 455.009,159.23 450.675,161.73 446.5,164.5C 445.833,169.833 442.833,172.833 437.5,173.5C 435.971,173.471 434.804,172.804 434,171.5C 418.805,180.7 403.305,189.867 387.5,199C 385.833,199.667 384.167,199.667 382.5,199C 378.467,196.323 376.134,192.656 375.5,188C 376.833,186.333 378.167,184.667 379.5,183C 381.035,182.504 382.535,182.67 384,183.5C 388.284,181.383 392.451,179.05 396.5,176.5C 395.287,174.149 395.953,172.316 398.5,171C 401.889,171.187 405.222,171.021 408.5,170.5C 409.779,168.854 411.445,167.687 413.5,167C 412.405,163.381 413.905,161.214 418,160.5C 419.285,160.95 420.452,161.617 421.5,162.5C 423.795,160.52 426.461,159.353 429.5,159C 437.433,153.535 445.433,148.369 453.5,143.5 Z"/></g>
<g><path style="opacity:1" fill="#e6e8ea" d="M 85.5,146.5 C 89.2817,149.562 89.4483,152.895 86,156.5C 85.51,155.207 85.3433,153.873 85.5,152.5C 84.325,152.719 83.325,152.386 82.5,151.5C 83.2599,149.64 84.2599,147.973 85.5,146.5 Z"/></g>
<g><path style="opacity:1" fill="#838d98" d="M 59.5,193.5 C 58.791,194.404 57.791,194.737 56.5,194.5C 57.0482,191.975 58.0482,189.641 59.5,187.5C 59.4392,189.561 59.4392,191.561 59.5,193.5 Z"/></g>
<g><path style="opacity:1" fill="#e7e9eb" d="M 569.5,191.5 C 571.928,193.043 574.594,194.043 577.5,194.5C 577.5,196.833 577.5,199.167 577.5,201.5C 579.167,201.5 580.833,201.5 582.5,201.5C 584.28,210.014 583.78,218.347 581,226.5C 579.855,220.451 578.855,214.451 578,208.5C 581.724,212.44 582.39,211.773 580,206.5C 574.697,202.707 571.197,197.707 569.5,191.5 Z"/></g>
<g><path style="opacity:1" fill="#314253" d="M 226.5,211.5 C 229.839,211.89 233.173,212.39 236.5,213C 238.288,216.406 237.455,218.906 234,220.5C 233.727,222.101 233.227,223.601 232.5,225C 225.824,227.178 220.824,231.344 217.5,237.5C 215.833,238.667 214.167,239.833 212.5,241C 210.536,241.624 208.869,241.124 207.5,239.5C 191.417,248.959 175.25,258.292 159,267.5C 152.202,265.074 149.202,260.408 150,253.5C 151.92,250.562 154.42,249.895 157.5,251.5C 161.007,249.246 164.673,247.246 168.5,245.5C 169.289,238.66 172.956,236.66 179.5,239.5C 181.569,239.215 182.902,238.048 183.5,236C 184.448,235.517 185.448,235.351 186.5,235.5C 186.123,229.05 188.956,227.05 195,229.5C 196.784,228.691 198.617,228.024 200.5,227.5C 204.525,224.157 208.858,221.324 213.5,219C 218.472,217.511 222.805,215.011 226.5,211.5 Z"/></g>
<g><path style="opacity:1" fill="#314253" d="M 453.5,211.5 C 456.487,211.998 459.487,212.498 462.5,213C 464.158,213.725 464.658,214.892 464,216.5C 462.234,218.596 460.901,220.929 460,223.5C 455.371,226.117 450.871,228.951 446.5,232C 445.69,237.477 442.523,240.644 437,241.5C 435.715,241.05 434.548,240.383 433.5,239.5C 427.17,243.664 420.503,247.164 413.5,250C 412.833,251 412.167,252 411.5,253C 403.01,257.411 394.677,262.078 386.5,267C 378.809,265.943 375.642,261.443 377,253.5C 378.786,250.638 381.119,249.972 384,251.5C 388.084,248.874 392.25,246.374 396.5,244C 395.397,242.32 395.73,240.82 397.5,239.5C 400.82,238.559 404.153,238.392 407.5,239C 410.869,236.207 413.536,232.874 415.5,229C 418.025,228.104 420.192,228.604 422,230.5C 428.162,226.043 434.662,221.876 441.5,218C 443.167,217.667 444.833,217.333 446.5,217C 448.444,214.542 450.778,212.709 453.5,211.5 Z"/></g>
<g><path style="opacity:1" fill="#314253" d="M 563.5,211.5 C 566.784,211.723 569.951,212.39 573,213.5C 575.533,217.086 574.7,219.086 570.5,219.5C 570.657,220.873 570.49,222.207 570,223.5C 565.379,226.286 560.879,229.286 556.5,232.5C 555.808,236.691 553.475,239.525 549.5,241C 547.331,241.429 545.331,240.929 543.5,239.5C 528.274,249.124 512.608,258.291 496.5,267C 493.904,267.458 491.737,266.625 490,264.5C 489.047,262.545 487.713,260.878 486,259.5C 485.122,256.3 485.955,253.633 488.5,251.5C 490.167,250.167 491.833,250.167 493.5,251.5C 497.374,249.132 501.374,246.966 505.5,245C 506.167,243 506.833,241 507.5,239C 508.872,238.598 510.205,238.098 511.5,237.5C 513.331,238.929 515.331,239.429 517.5,239C 519.082,236.915 521.082,235.415 523.5,234.5C 522.287,232.149 522.953,230.316 525.5,229C 528.025,228.104 530.192,228.604 532,230.5C 542.312,224.057 552.812,217.724 563.5,211.5 Z"/></g>
<g><path style="opacity:1" fill="#111213" d="M 331.5,151.5 C 332.873,151.343 334.207,151.51 335.5,152C 340,156.5 344.5,161 349,165.5C 349.167,179.179 349.667,192.846 350.5,206.5C 354.19,204.461 357.857,202.461 361.5,200.5C 365.948,202.224 370.281,204.224 374.5,206.5C 375.5,229.49 375.833,252.49 375.5,275.5C 379.514,275.334 383.514,275.501 387.5,276C 388.444,278.719 388.777,281.552 388.5,284.5C 345.5,284.5 302.5,284.5 259.5,284.5C 259.5,281.5 259.5,278.5 259.5,275.5C 263.833,275.5 268.167,275.5 272.5,275.5C 272.167,251.158 272.5,226.824 273.5,202.5C 279.207,198.29 285.04,194.29 291,190.5C 294.651,192.493 298.317,194.493 302,196.5C 302.333,189.5 302.667,182.5 303,175.5C 312.664,167.601 322.164,159.601 331.5,151.5 Z"/></g>
<g><path style="opacity:1" fill="#fcfcfc" d="M 358.5,206.5 C 359.833,224.5 359.833,242.5 358.5,260.5C 355.471,257.141 352.471,253.808 349.5,250.5C 349.333,237.496 349.5,224.496 350,211.5C 352.642,209.432 355.475,207.765 358.5,206.5 Z"/></g>
<g><path style="opacity:1" fill="#6f7070" d="M 358.5,206.5 C 358.56,205.957 358.893,205.624 359.5,205.5C 360.5,224.155 360.833,242.821 360.5,261.5C 359.508,261.672 358.842,261.338 358.5,260.5C 359.833,242.5 359.833,224.5 358.5,206.5 Z"/></g>
<g><path style="opacity:1" fill="#fefefe" d="M 363.5,203.5 C 366.596,204.547 369.596,205.88 372.5,207.5C 373.5,230.49 373.833,253.49 373.5,276.5C 369.833,276.5 366.167,276.5 362.5,276.5C 362.169,251.994 362.502,227.661 363.5,203.5 Z"/></g>
<g><path style="opacity:1" fill="#d6d6d6" d="M 363.5,203.5 C 362.502,227.661 362.169,251.994 362.5,276.5C 366.167,276.5 369.833,276.5 373.5,276.5C 369.702,277.483 365.702,277.817 361.5,277.5C 361.167,252.491 361.5,227.491 362.5,202.5C 363.107,202.624 363.44,202.957 363.5,203.5 Z"/></g>
<g><path style="opacity:1" fill="#343434" d="M 304.5,176.5 C 304.5,210.167 304.5,243.833 304.5,277.5C 303.833,276.833 303.167,276.167 302.5,275.5C 302.823,250.092 302.49,224.759 301.5,199.5C 303.153,192.054 304.153,184.388 304.5,176.5 Z"/></g>
<g><path style="opacity:1" fill="#fafafa" d="M 292.5,195.5 C 295.378,197.105 298.378,198.439 301.5,199.5C 302.49,224.759 302.823,250.092 302.5,275.5C 299.167,275.5 295.833,275.5 292.5,275.5C 292.5,248.833 292.5,222.167 292.5,195.5 Z"/></g>
<g><path style="opacity:1" fill="#333333" d="M 289.5,193.5 C 289.56,192.957 289.893,192.624 290.5,192.5C 291.176,193.602 291.842,194.602 292.5,195.5C 292.5,222.167 292.5,248.833 292.5,275.5C 291.833,276.167 291.167,276.833 290.5,277.5C 290.831,249.328 290.498,221.328 289.5,193.5 Z"/></g>
<g><path style="opacity:1" fill="#f5f5f5" d="M 289.5,193.5 C 290.498,221.328 290.831,249.328 290.5,277.5C 284.833,277.5 279.167,277.5 273.5,277.5C 273.167,252.824 273.5,228.158 274.5,203.5C 279.518,200.141 284.518,196.807 289.5,193.5 Z"/></g>
<g><path style="opacity:1" fill="#262626" d="M 327.5,157.5 C 328.348,156.375 329.348,156.375 330.5,157.5C 330.5,181.167 330.5,204.833 330.5,228.5C 329.833,244.833 329.167,261.167 328.5,277.5C 328.5,277.167 328.5,276.833 328.5,276.5C 328.832,236.663 328.499,196.996 327.5,157.5 Z"/></g>
<g><path style="opacity:1" fill="#fdfdfd" d="M 327.5,157.5 C 328.499,196.996 328.832,236.663 328.5,276.5C 320.833,276.5 313.167,276.5 305.5,276.5C 305.5,242.833 305.5,209.167 305.5,175.5C 312.794,169.511 320.127,163.511 327.5,157.5 Z"/></g>
<g><path style="opacity:1" fill="#d6d6d6" d="M 336.5,158.5 C 335.185,159.476 333.852,160.476 332.5,161.5C 331.5,184.157 331.167,206.824 331.5,229.5C 331.167,229.5 330.833,229.5 330.5,229.5C 330.5,229.167 330.5,228.833 330.5,228.5C 330.5,204.833 330.5,181.167 330.5,157.5C 332.815,154.811 334.815,155.145 336.5,158.5 Z"/></g>
<g><path style="opacity:1" fill="#fbfbfb" d="M 336.5,158.5 C 339.464,160.962 342.297,163.629 345,166.5C 345.5,192.831 345.667,219.165 345.5,245.5C 340.49,240.488 335.823,235.155 331.5,229.5C 331.167,206.824 331.5,184.157 332.5,161.5C 333.852,160.476 335.185,159.476 336.5,158.5 Z"/></g>
<g><path style="opacity:1" fill="#2c3d4f" d="M 330.5,229.5 C 330.833,229.5 331.167,229.5 331.5,229.5C 335.823,235.155 340.49,240.488 345.5,245.5C 345.5,255.5 345.5,265.5 345.5,275.5C 340.5,275.5 335.5,275.5 330.5,275.5C 330.5,260.167 330.5,244.833 330.5,229.5 Z"/></g>
<g><path style="opacity:1" fill="#ebedee" d="M 583.5,236.5 C 585.571,237.572 586.905,239.239 587.5,241.5C 586.383,244.07 585.55,246.737 585,249.5C 583.227,245.455 581.06,241.622 578.5,238C 580.456,238.222 582.29,239.055 584,240.5C 584.195,239.181 584.028,237.847 583.5,236.5 Z"/></g>
<g><path style="opacity:1" fill="#dedede" d="M 305.5,175.5 C 305.5,209.167 305.5,242.833 305.5,276.5C 313.167,276.5 320.833,276.5 328.5,276.5C 328.5,276.833 328.5,277.167 328.5,277.5C 320.5,277.5 312.5,277.5 304.5,277.5C 304.5,243.833 304.5,210.167 304.5,176.5C 304.5,175.833 304.833,175.5 305.5,175.5 Z"/></g>
<g><path style="opacity:1" fill="#687582" d="M 40.5,237.5 C 40.1936,240.385 40.5269,243.052 41.5,245.5C 41.313,247.564 40.813,249.564 40,251.5C 39.1849,246.648 39.3516,241.981 40.5,237.5 Z"/></g>
<g><path style="opacity:1" fill="#2d3e50" d="M 349.5,250.5 C 352.471,253.808 355.471,257.141 358.5,260.5C 358.842,261.338 359.508,261.672 360.5,261.5C 359.559,266.07 359.226,270.737 359.5,275.5C 356.167,275.5 352.833,275.5 349.5,275.5C 349.5,267.167 349.5,258.833 349.5,250.5 Z"/></g>
<g><path style="opacity:1" fill="#ebedee" d="M 590.5,262.5 C 590.813,266.042 590.479,269.375 589.5,272.5C 587.018,267.818 584.685,262.985 582.5,258C 582.667,257.5 582.833,257 583,256.5C 585.086,259.094 587.586,261.094 590.5,262.5 Z"/></g>
<g><path style="opacity:1" fill="#687582" d="M 590.5,262.5 C 591.648,266.981 591.815,271.648 591,276.5C 589.812,275.437 589.312,274.103 589.5,272.5C 590.479,269.375 590.813,266.042 590.5,262.5 Z"/></g>
<g><path style="opacity:1" fill="#787878" d="M 384.5,281.5 C 364.678,280.167 344.511,279.5 324,279.5C 303.489,279.5 283.322,280.167 263.5,281.5C 262.596,280.791 262.263,279.791 262.5,278.5C 303.5,278.5 344.5,278.5 385.5,278.5C 385.737,279.791 385.404,280.791 384.5,281.5 Z"/></g>
<g><path style="opacity:1" fill="#324354" d="M 36.5,329.5 C 35.3428,326.727 34.6761,323.727 34.5,320.5C 35.2679,321.263 35.7679,322.263 36,323.5C 38.4263,320.525 41.2597,319.192 44.5,319.5C 45.4849,315.366 45.8182,311.032 45.5,306.5C 46.1663,310.353 46.833,314.353 47.5,318.5C 50.3286,317.253 52.9952,315.753 55.5,314C 56.5183,307.709 60.0183,305.876 66,308.5C 68.2064,306.651 70.7064,305.151 73.5,304C 72.1102,301.006 73.1102,299.006 76.5,298C 78.7008,297.175 80.5341,297.675 82,299.5C 92.2518,292.956 102.752,286.789 113.5,281C 116.8,281.046 120.134,281.212 123.5,281.5C 125.561,285.149 124.727,287.816 121,289.5C 120.667,290.833 120.333,292.167 120,293.5C 114.957,295.271 110.457,297.937 106.5,301.5C 105.723,303.781 104.723,305.948 103.5,308C 101.238,308.642 99.0715,309.475 97,310.5C 96,309.833 95,309.167 94,308.5C 78.5121,317.822 63.0121,326.989 47.5,336C 45.8333,336.667 44.1667,336.667 42.5,336C 40.6627,333.604 38.6627,331.438 36.5,329.5 Z"/></g>
<g><path style="opacity:1" fill="#334455" d="M 168.5,331.5 C 165.873,332.092 163.206,332.425 160.5,332.5C 160.784,334.415 160.451,336.081 159.5,337.5C 159.38,336.414 158.713,335.747 157.5,335.5C 156.261,335.942 155.261,336.609 154.5,337.5C 154.714,335.856 154.38,334.356 153.5,333C 141.838,332.5 130.171,332.333 118.5,332.5C 128.987,331.506 139.654,331.172 150.5,331.5C 148.536,327.111 149.203,323.278 152.5,320C 154.235,319.349 155.902,319.515 157.5,320.5C 161.485,318.294 165.485,316.294 169.5,314.5C 168.725,310.818 170.059,308.318 173.5,307C 176.026,307.904 178.692,308.238 181.5,308C 182.685,306.647 184.019,305.48 185.5,304.5C 186.23,302.659 186.897,300.825 187.5,299C 192.541,299.026 197.541,298.026 202.5,296C 204.394,293.108 207.061,291.441 210.5,291C 216.025,288.039 221.358,284.705 226.5,281C 229.833,280.886 233.166,281.219 236.5,282C 237.081,282.893 237.415,283.893 237.5,285C 235.878,287.743 234.378,290.576 233,293.5C 225.596,296.241 220.096,301.074 216.5,308C 213.583,310.891 210.583,311.057 207.5,308.5C 201.275,312.239 195.108,315.905 189,319.5C 188.667,319.167 188.333,318.833 188,318.5C 185.519,322.314 182.019,324.481 177.5,325C 174.786,327.678 171.786,329.845 168.5,331.5 Z"/></g>
<g><path style="opacity:1" fill="#c8c8c8" d="M 384.5,281.5 C 344.167,281.5 303.833,281.5 263.5,281.5C 283.322,280.167 303.489,279.5 324,279.5C 344.511,279.5 364.678,280.167 384.5,281.5 Z"/></g>
<g><path style="opacity:1" fill="#314253" d="M 393.5,332.5 C 392.167,332.5 390.833,332.5 389.5,332.5C 389.5,333.5 389.5,334.5 389.5,335.5C 382.594,336.821 377.927,333.988 375.5,327C 376.175,321.629 379.008,319.462 384,320.5C 386.738,318.88 389.572,317.38 392.5,316C 394.487,314.681 395.654,312.848 396,310.5C 398.815,306.393 402.148,305.726 406,308.5C 407.991,307.237 409.991,305.903 412,304.5C 412.649,297.926 415.816,296.259 421.5,299.5C 431.995,293.084 442.662,286.917 453.5,281C 456.515,280.799 459.515,281.132 462.5,282C 463.574,282.739 464.241,283.739 464.5,285C 462.214,287.456 460.547,290.29 459.5,293.5C 457.205,295.48 454.539,296.647 451.5,297C 447.462,300.408 444.128,304.408 441.5,309C 438.699,310.621 436.199,310.455 434,308.5C 423.712,314.709 413.546,320.375 403.5,325.5C 400.149,327.859 396.815,330.192 393.5,332.5 Z"/></g>
<g><path style="opacity:1" fill="#314253" d="M 501.5,333.5 C 500.848,332.275 499.681,331.608 498,331.5C 495.502,331.917 493.002,332.251 490.5,332.5C 489.504,332.586 488.671,332.252 488,331.5C 483.697,323.748 486.197,319.915 495.5,320C 498.833,318 502.167,316 505.5,314C 506.056,311.763 507.056,309.763 508.5,308C 511.889,308.187 515.222,308.021 518.5,307.5C 519.779,305.854 521.445,304.687 523.5,304C 522.477,300.151 524.144,297.984 528.5,297.5C 530.029,297.529 531.196,298.196 532,299.5C 542.252,292.956 552.752,286.789 563.5,281C 566.8,281.046 570.134,281.212 573.5,281.5C 575.561,285.149 574.727,287.816 571,289.5C 570.667,290.833 570.333,292.167 570,293.5C 564.957,295.271 560.457,297.937 556.5,301.5C 555.723,303.781 554.723,305.948 553.5,308C 551.238,308.642 549.071,309.475 547,310.5C 546,309.833 545,309.167 544,308.5C 529.662,316.699 515.496,325.033 501.5,333.5 Z"/></g>
<g><path style="opacity:1" fill="#dfe2e4" d="M 45.5,306.5 C 45.8182,311.032 45.4849,315.366 44.5,319.5C 42.2855,310.848 42.1189,302.181 44,293.5C 44.7354,297.813 45.2354,302.147 45.5,306.5 Z"/></g>
<g><path style="opacity:1" fill="#dee1e4" d="M 588.5,299.5 C 590.892,303.081 591.725,307.081 591,311.5C 588.549,307.68 587.716,303.68 588.5,299.5 Z"/></g>
<g><path style="opacity:1" fill="#b9bfc5" d="M 20.5,306.5 C 19.5655,307.568 19.2322,308.901 19.5,310.5C 18.4801,306.315 17.9801,301.981 18,297.5C 19.2553,300.338 20.0887,303.338 20.5,306.5 Z"/></g>
<g><path style="opacity:1" fill="#e0e2e4" d="M 618.5,311.5 C 619.645,315.311 619.812,319.311 619,323.5C 618.586,323.957 618.086,324.291 617.5,324.5C 614.721,319.949 615.054,315.615 618.5,311.5 Z"/></g>
<g><path style="opacity:1" fill="#8d97a1" d="M 309.5,332.5 C 311.607,331.532 313.941,331.198 316.5,331.5C 316.737,332.791 316.404,333.791 315.5,334.5C 314.082,332.692 312.082,332.025 309.5,332.5 Z"/></g>
<g><path style="opacity:1" fill="#f8f9f9" d="M 276.5,601.5 C 272.327,601.667 268.66,603 265.5,605.5C 262.088,606.187 258.754,607.187 255.5,608.5C 253.018,607.103 250.352,606.269 247.5,606C 240.833,605.667 234.167,605.333 227.5,605C 225.235,603.882 222.901,603.049 220.5,602.5C 220.5,601.167 220.5,599.833 220.5,598.5C 212.669,597.367 205.003,595.534 197.5,593C 193.905,589.95 190.405,586.784 187,583.5C 186.568,582.4 187.068,581.733 188.5,581.5C 193.533,583.233 198.533,585.067 203.5,587C 206.379,587.874 209.045,587.54 211.5,586C 202.8,583.103 194.467,579.436 186.5,575C 191.167,571.164 196.5,569.33 202.5,569.5C 202.56,570.043 202.893,570.376 203.5,570.5C 205.657,569.95 207.657,569.283 209.5,568.5C 214.851,567.572 219.685,568.906 224,572.5C 223.956,574.279 223.289,575.945 222,577.5C 221.503,580.146 221.336,582.813 221.5,585.5C 244.859,586.231 267.859,583.898 290.5,578.5C 289.467,582.398 287.133,585.231 283.5,587C 290.421,588.536 297.421,589.37 304.5,589.5C 315.786,592.116 326.119,590.283 335.5,584C 342.687,582.833 349.52,580.667 356,577.5C 356.507,578.996 356.007,580.163 354.5,581C 352.167,582.5 349.833,584 347.5,585.5C 356.807,586.763 366.14,587.263 375.5,587C 377.976,585.691 379.976,583.858 381.5,581.5C 384.335,584.671 384.002,587.504 380.5,590C 385.549,589.149 390.215,587.149 394.5,584C 397.275,583.222 399.775,583.722 402,585.5C 412.231,581.944 415.564,574.944 412,564.5C 416.201,559.817 421.368,556.817 427.5,555.5C 427.675,557.621 427.341,559.621 426.5,561.5C 425.596,562.209 425.263,563.209 425.5,564.5C 427.099,564.232 428.432,564.566 429.5,565.5C 429.56,566.043 429.893,566.376 430.5,566.5C 438.942,560.946 447.942,556.446 457.5,553C 464.525,549.245 470.858,544.912 476.5,540C 472.492,545.175 470.659,551.008 471,557.5C 472.571,555.077 474.737,553.744 477.5,553.5C 476.909,556.614 475.242,559.114 472.5,561C 468.217,563.615 464.217,566.615 460.5,570C 464.538,570.407 468.205,569.407 471.5,567C 479.022,560.644 486.689,554.477 494.5,548.5C 495.167,549.5 495.833,550.5 496.5,551.5C 497.086,551.291 497.586,550.957 498,550.5C 502.712,541.707 507.045,532.707 511,523.5C 514.131,519.367 517.631,515.534 521.5,512C 519.833,510.333 518.167,508.667 516.5,507C 518.134,506.506 519.801,506.34 521.5,506.5C 521.924,502.966 522.591,499.466 523.5,496C 522.875,494.159 522.708,492.326 523,490.5C 535.97,475.707 547.137,459.707 556.5,442.5C 561.672,434.16 566.338,425.493 570.5,416.5C 574.008,408.819 577.508,401.152 581,393.5C 581.169,399.859 581.669,406.193 582.5,412.5C 583.478,412.023 584.311,411.357 585,410.5C 584.095,390.454 588.095,371.454 597,353.5C 597.395,356.207 597.895,358.873 598.5,361.5C 599.403,364.391 599.736,367.391 599.5,370.5C 600.5,370.5 601.5,370.5 602.5,370.5C 602.5,368.5 602.5,366.5 602.5,364.5C 604.103,357.401 603.769,350.401 601.5,343.5C 602.829,338.2 603.996,332.866 605,327.5C 606.587,326.273 607.921,326.606 609,328.5C 614.31,337.767 615.977,347.767 614,358.5C 598.897,453.914 550.064,526.414 467.5,576C 460.167,579.667 452.833,583.333 445.5,587C 403.737,601.22 361.07,611.887 317.5,619C 313.833,619.667 310.167,619.667 306.5,619C 311.833,615.333 317.167,611.667 322.5,608C 325.227,607.182 327.894,607.348 330.5,608.5C 327.833,610.167 325.167,611.833 322.5,613.5C 327.802,614.663 333.136,614.829 338.5,614C 339.578,613.326 340.245,612.326 340.5,611C 339.555,608.911 339.555,606.911 340.5,605C 343.309,603.342 346.309,602.175 349.5,601.5C 353.595,603.444 357.928,603.944 362.5,603C 366.241,600.268 370.241,597.934 374.5,596C 376.559,594.815 376.726,593.648 375,592.5C 370.3,594.217 365.467,595.383 360.5,596C 349.5,596.333 338.5,596.667 327.5,597C 322.262,597.703 317.762,599.87 314,603.5C 315.131,605.977 314.631,608.143 312.5,610C 304.316,614.223 295.649,615.556 286.5,614C 285.167,613 285.167,612 286.5,611C 285.167,610.667 283.833,610.333 282.5,610C 293.619,611.627 303.119,608.46 311,600.5C 311.707,598.919 312.54,597.419 313.5,596C 305.87,594.444 298.203,593.277 290.5,592.5C 291.304,594.018 291.304,595.852 290.5,598C 285.899,599.484 281.232,600.65 276.5,601.5 Z"/></g>
<g><path style="opacity:1" fill="#f0f1f2" d="M 168.5,331.5 C 179.458,331.073 190.291,331.74 201,333.5C 203.089,349.197 202.923,364.864 200.5,380.5C 187.164,381.811 173.83,381.811 160.5,380.5C 159.677,366.183 159.344,351.849 159.5,337.5C 160.451,336.081 160.784,334.415 160.5,332.5C 163.206,332.425 165.873,332.092 168.5,331.5 Z"/></g>
<g><path style="opacity:1" fill="#ecedef" d="M 213.5,331.5 C 222.506,331.334 231.506,331.5 240.5,332C 243.426,332.218 246.26,332.718 249,333.5C 250.81,349.148 250.977,364.814 249.5,380.5C 245.802,380.552 242.135,380.886 238.5,381.5C 241.667,366.997 243.667,352.331 244.5,337.5C 240.119,337.372 235.785,337.705 231.5,338.5C 231.255,352.858 231.588,367.192 232.5,381.5C 230.167,381.5 227.833,381.5 225.5,381.5C 226.409,367.525 226.743,353.525 226.5,339.5C 223.252,339.901 220.085,340.568 217,341.5C 214.023,354.329 212.856,367.329 213.5,380.5C 211.856,380.714 210.356,380.38 209,379.5C 207.149,364.139 207.149,348.806 209,333.5C 210.622,332.901 212.122,332.234 213.5,331.5 Z"/></g>
<g><path style="opacity:1" fill="#eff0f1" d="M 298.5,340.5 C 298.611,353.848 298.277,367.181 297.5,380.5C 293.802,380.552 290.135,380.886 286.5,381.5C 286.448,379.097 286.781,376.764 287.5,374.5C 290.677,362.415 292.343,350.082 292.5,337.5C 288.119,337.372 283.785,337.705 279.5,338.5C 279.396,352.847 279.73,367.18 280.5,381.5C 278.167,381.5 275.833,381.5 273.5,381.5C 275.513,367.532 275.847,353.532 274.5,339.5C 271.545,340.159 268.545,340.492 265.5,340.5C 262.483,353.651 261.15,366.984 261.5,380.5C 259.549,380.773 258.049,380.107 257,378.5C 255.03,363.498 255.03,348.498 257,333.5C 262.841,331.946 268.841,331.279 275,331.5C 282.202,331.532 289.369,332.032 296.5,333C 297.867,335.301 298.534,337.801 298.5,340.5 Z"/></g>
<g><path style="opacity:1" fill="#f6f6f7" d="M 309.5,332.5 C 312.082,332.025 314.082,332.692 315.5,334.5C 313.529,341.716 312.196,349.049 311.5,356.5C 310.407,361.306 309.741,366.306 309.5,371.5C 318.347,373.731 327.347,375.065 336.5,375.5C 338.315,365.905 339.648,356.238 340.5,346.5C 341.229,341.87 341.563,337.203 341.5,332.5C 342.833,332.5 344.167,332.5 345.5,332.5C 346.797,348.495 346.797,364.495 345.5,380.5C 333.852,381.302 322.185,381.635 310.5,381.5C 309.081,380.549 307.415,380.216 305.5,380.5C 304.596,367.192 304.263,353.859 304.5,340.5C 304.575,337.794 304.908,335.127 305.5,332.5C 306.833,332.5 308.167,332.5 309.5,332.5 Z"/></g>
<g><path style="opacity:1" fill="#f2f3f4" d="M 389.5,335.5 C 389.5,334.5 389.5,333.5 389.5,332.5C 390.833,332.5 392.167,332.5 393.5,332.5C 396.082,348.352 396.082,364.352 393.5,380.5C 390.214,381.207 386.881,381.54 383.5,381.5C 384.135,378.507 384.301,375.507 384,372.5C 377.405,363.07 369.905,354.403 361.5,346.5C 359.529,354.382 358.529,362.382 358.5,370.5C 357.521,373.625 357.187,376.958 357.5,380.5C 355.801,380.473 354.467,379.806 353.5,378.5C 352.184,363.163 352.184,347.829 353.5,332.5C 357.182,332.335 360.848,332.501 364.5,333C 363.39,335.737 363.223,338.571 364,341.5C 370.217,350.723 377.55,359.056 386,366.5C 388.447,356.314 389.613,345.981 389.5,335.5 Z"/></g>
<g><path style="opacity:1" fill="#f0f1f2" d="M 404.5,331.5 C 416.203,331.232 427.869,331.732 439.5,333C 440.38,334.356 440.714,335.856 440.5,337.5C 434.464,337.36 428.464,337.693 422.5,338.5C 422.5,350.5 422.5,362.5 422.5,374.5C 428.469,375.385 434.469,376.052 440.5,376.5C 440.5,377.833 440.5,379.167 440.5,380.5C 427.158,381.731 413.825,381.731 400.5,380.5C 399.588,376.869 399.421,373.203 400,369.5C 405.937,371.753 412.104,373.087 418.5,373.5C 418.743,362.136 418.41,350.802 417.5,339.5C 411.355,340.216 405.355,341.549 399.5,343.5C 399.335,340.15 399.502,336.817 400,333.5C 401.622,332.901 403.122,332.234 404.5,331.5 Z"/></g>
<g><path style="opacity:1" fill="#ebecee" d="M 449.5,331.5 C 461.206,331.199 472.873,331.699 484.5,333C 485.38,334.356 485.714,335.856 485.5,337.5C 479.455,337.303 473.455,337.637 467.5,338.5C 467.275,352.855 467.609,367.188 468.5,381.5C 466.167,381.5 463.833,381.5 461.5,381.5C 463.376,367.523 463.71,353.523 462.5,339.5C 456.293,340.004 450.293,341.337 444.5,343.5C 444.335,340.15 444.502,336.817 445,333.5C 446.622,332.901 448.122,332.234 449.5,331.5 Z"/></g>
<g><path style="opacity:1" fill="#f5f6f7" d="M 501.5,333.5 C 499.075,340.203 497.409,347.203 496.5,354.5C 506.167,354.5 515.833,354.5 525.5,354.5C 525.98,349.178 526.313,343.845 526.5,338.5C 527.451,337.081 527.784,335.415 527.5,333.5C 528.5,333.5 529.5,333.5 530.5,333.5C 531.253,342.146 531.587,350.812 531.5,359.5C 529.5,359.5 527.5,359.5 525.5,359.5C 521.366,358.515 517.032,358.182 512.5,358.5C 512.187,362.042 512.521,365.375 513.5,368.5C 513.5,370.167 513.5,371.833 513.5,373.5C 513.575,376.206 513.908,378.873 514.5,381.5C 512.167,381.5 509.833,381.5 507.5,381.5C 507.5,379.833 507.5,378.167 507.5,376.5C 508.455,370.591 508.789,364.591 508.5,358.5C 502.131,358.347 495.797,358.68 489.5,359.5C 489.401,350.479 489.734,341.479 490.5,332.5C 493.002,332.251 495.502,331.917 498,331.5C 499.681,331.608 500.848,332.275 501.5,333.5 Z"/></g>
<g><path style="opacity:1" fill="#606d7b" d="M 149.5,337.5 C 144.402,338.957 139.069,339.624 133.5,339.5C 138.568,337.822 143.902,337.156 149.5,337.5 Z"/></g>
<g><path style="opacity:1" fill="#2f4052" d="M 184.5,338.5 C 188.167,338.5 191.833,338.5 195.5,338.5C 195.5,342.167 195.5,345.833 195.5,349.5C 194.574,357.907 193.241,366.24 191.5,374.5C 190.333,374.833 189.167,375.167 188,375.5C 180.399,374.613 172.899,373.279 165.5,371.5C 165.622,361.404 166.622,351.404 168.5,341.5C 173.784,340.286 179.118,339.286 184.5,338.5 Z"/></g>
<g><path style="opacity:1" fill="#6f7b88" d="M 184.5,338.5 C 188.298,337.517 192.298,337.183 196.5,337.5C 196.817,341.702 196.483,345.702 195.5,349.5C 195.5,345.833 195.5,342.167 195.5,338.5C 191.833,338.5 188.167,338.5 184.5,338.5 Z"/></g>
<g><path style="opacity:1" fill="#314253" d="M 507.5,376.5 C 507.5,378.167 507.5,379.833 507.5,381.5C 509.833,381.5 512.167,381.5 514.5,381.5C 513.908,378.873 513.575,376.206 513.5,373.5C 514.404,374.209 514.737,375.209 514.5,376.5C 515.552,376.649 516.552,376.483 517.5,376C 519.091,373.867 521.091,372.201 523.5,371C 522.14,369.062 522.473,367.396 524.5,366C 527.068,364.017 529.401,364.183 531.5,366.5C 542.834,360.303 554.001,353.97 565,347.5C 567.464,348.161 569.964,348.661 572.5,349C 573.293,350.085 573.96,351.252 574.5,352.5C 572.21,355.268 570.21,358.268 568.5,361.5C 563.873,363.377 559.707,366.044 556,369.5C 554.368,376.399 550.201,378.732 543.5,376.5C 542.059,377.304 540.559,377.971 539,378.5C 525.941,387.209 512.441,395.375 498.5,403C 496.098,403.814 493.765,403.647 491.5,402.5C 490.863,400.697 489.697,399.364 488,398.5C 484.608,394.692 485.108,391.192 489.5,388C 491.112,387.28 492.612,387.446 494,388.5C 496.921,386.288 500.088,384.455 503.5,383C 504.76,380.699 506.093,378.532 507.5,376.5 Z"/></g>
<g><path style="opacity:1" fill="#364758" d="M 340.5,346.5 C 339.648,356.238 338.315,365.905 336.5,375.5C 327.347,375.065 318.347,373.731 309.5,371.5C 309.741,366.306 310.407,361.306 311.5,356.5C 311.336,359.187 311.503,361.854 312,364.5C 313.399,363.773 314.899,363.273 316.5,363C 319.896,359.912 323.562,357.245 327.5,355C 329.473,354.505 331.473,354.338 333.5,354.5C 333.281,353.325 333.614,352.325 334.5,351.5C 337.155,350.503 339.155,348.836 340.5,346.5 Z"/></g>
<g><path style="opacity:1" fill="#abb2b9" d="M 531.5,359.5 C 531.587,350.812 531.253,342.146 530.5,333.5C 529.5,333.5 528.5,333.5 527.5,333.5C 527.784,335.415 527.451,337.081 526.5,338.5C 526.5,336.5 526.5,334.5 526.5,332.5C 528.167,332.5 529.833,332.5 531.5,332.5C 532.696,341.652 532.696,350.652 531.5,359.5 Z"/></g>
<g><path style="opacity:1" fill="#334455" d="M 112.5,349.5 C 112.5,354.5 112.5,359.5 112.5,364.5C 110.495,366.334 108.328,368.001 106,369.5C 104.368,376.399 100.201,378.732 93.5,376.5C 92.0589,377.304 90.5589,377.971 89,378.5C 77.4625,385.393 65.9625,392.226 54.5,399C 54.0426,399.414 53.7093,399.914 53.5,400.5C 54.8334,401.62 55.3334,402.953 55,404.5C 53.647,403.315 52.4803,401.981 51.5,400.5C 50.6143,401.325 50.281,402.325 50.5,403.5C 48.5644,393.83 46.0644,384.163 43,374.5C 37.8334,370.588 35.3334,365.588 35.5,359.5C 37.0905,361.633 39.0905,363.299 41.5,364.5C 42.2811,363.271 42.7811,361.938 43,360.5C 44.9804,364.732 46.8137,369.065 48.5,373.5C 51.6335,370.569 53.8002,371.235 55,375.5C 55.4828,374.552 55.6495,373.552 55.5,372.5C 56.1614,373.718 56.8281,375.051 57.5,376.5C 58.6113,375.389 59.9446,374.722 61.5,374.5C 63.3228,375.845 65.3228,376.345 67.5,376C 69.0905,373.867 71.0905,372.201 73.5,371C 72.1398,369.062 72.4732,367.396 74.5,366C 77.0679,364.017 79.4012,364.183 81.5,366.5C 92.0736,361 102.407,355.333 112.5,349.5 Z"/></g>
<g><path style="opacity:1" fill="#f3f4f5" d="M 118.5,332.5 C 130.171,332.333 141.838,332.5 153.5,333C 154.38,334.356 154.714,335.856 154.5,337.5C 152.833,337.5 151.167,337.5 149.5,337.5C 143.902,337.156 138.568,337.822 133.5,339.5C 129.865,340.114 126.198,340.448 122.5,340.5C 120.438,350.719 119.105,361.053 118.5,371.5C 130.356,374.003 142.356,375.337 154.5,375.5C 154.5,377.167 154.5,378.833 154.5,380.5C 141.157,381.765 127.824,381.765 114.5,380.5C 113.512,375.211 112.845,369.878 112.5,364.5C 112.5,359.5 112.5,354.5 112.5,349.5C 112.405,344.113 112.905,338.78 114,333.5C 115.356,332.62 116.856,332.286 118.5,332.5 Z"/></g>
<g><path style="opacity:1" fill="#6c7885" d="M 525.5,359.5 C 521.5,359.5 517.5,359.5 513.5,359.5C 513.5,362.5 513.5,365.5 513.5,368.5C 512.521,365.375 512.187,362.042 512.5,358.5C 517.032,358.182 521.366,358.515 525.5,359.5 Z"/></g>
<g><path style="opacity:1" fill="#b1b8be" d="M 602.5,364.5 C 602.5,366.5 602.5,368.5 602.5,370.5C 601.5,370.5 600.5,370.5 599.5,370.5C 599.736,367.391 599.403,364.391 598.5,361.5C 599.117,361.389 599.617,361.056 600,360.5C 600.333,363.5 600.667,366.5 601,369.5C 601.198,367.618 601.698,365.952 602.5,364.5 Z"/></g>
<g><path style="opacity:1" fill="#8e98a1" d="M 358.5,370.5 C 358.5,374.167 358.5,377.833 358.5,381.5C 356.833,381.5 355.167,381.5 353.5,381.5C 353.5,380.5 353.5,379.5 353.5,378.5C 354.467,379.806 355.801,380.473 357.5,380.5C 357.187,376.958 357.521,373.625 358.5,370.5 Z"/></g>
<g><path style="opacity:1" fill="#38495a" d="M 298.5,340.5 C 299.167,349.009 299.833,357.676 300.5,366.5C 301.167,366.167 301.833,365.833 302.5,365.5C 303.167,357.01 303.833,348.676 304.5,340.5C 304.263,353.859 304.596,367.192 305.5,380.5C 307.415,380.216 309.081,380.549 310.5,381.5C 307.429,384.429 303.762,386.429 299.5,387.5C 297.462,390.855 294.462,392.688 290.5,393C 289.619,393.708 288.953,394.542 288.5,395.5C 286.5,395.5 284.5,395.5 282.5,395.5C 282.804,394.85 283.137,394.183 283.5,393.5C 282.157,391.161 280.824,388.828 279.5,386.5C 276.981,388.359 276.981,390.359 279.5,392.5C 279.167,392.833 278.833,393.167 278.5,393.5C 277.167,392.167 275.833,390.833 274.5,389.5C 273.201,390.09 272.368,391.09 272,392.5C 269.35,389.536 267.516,389.869 266.5,393.5C 266.942,394.739 267.609,395.739 268.5,396.5C 266.379,396.675 264.379,396.341 262.5,395.5C 262.242,389.25 265.076,386.917 271,388.5C 274.437,385.8 278.103,383.466 282,381.5C 282.422,377.961 284.255,375.627 287.5,374.5C 286.781,376.764 286.448,379.097 286.5,381.5C 290.135,380.886 293.802,380.552 297.5,380.5C 298.277,367.181 298.611,353.848 298.5,340.5 Z"/></g>
<g><path style="opacity:1" fill="#e4e5e7" d="M 58.5,381.5 C 61.6067,382.889 64.6067,384.555 67.5,386.5C 69.0175,385.089 70.3508,385.256 71.5,387C 64.1739,391.798 59.8405,389.965 58.5,381.5 Z"/></g>
<g><path style="opacity:1" fill="#f3f4f5" d="M 262.5,395.5 C 264.379,396.341 266.379,396.675 268.5,396.5C 269.833,396.5 271.167,396.5 272.5,396.5C 272.5,398.167 272.5,399.833 272.5,401.5C 261.738,401.562 251.071,402.562 240.5,404.5C 237.774,414.639 236.441,424.973 236.5,435.5C 248.339,438.139 260.339,439.472 272.5,439.5C 272.714,441.144 272.38,442.644 271.5,444C 259.868,445.468 248.202,445.801 236.5,445C 234.899,444.727 233.399,444.227 232,443.5C 230.207,427.849 230.041,412.182 231.5,396.5C 241.806,395.629 252.14,395.296 262.5,395.5 Z"/></g>
<g><path style="opacity:1" fill="#f0f2f3" d="M 282.5,395.5 C 284.5,395.5 286.5,395.5 288.5,395.5C 289.097,395.735 289.43,396.235 289.5,397C 286.22,409.637 284.22,422.47 283.5,435.5C 295.327,438.237 307.327,439.57 319.5,439.5C 319.5,441.167 319.5,442.833 319.5,444.5C 312.176,444.936 304.843,445.269 297.5,445.5C 291.186,445.69 285.019,445.024 279,443.5C 277.207,427.849 277.041,412.182 278.5,396.5C 279.959,396.567 281.292,396.234 282.5,395.5 Z"/></g>
<g><path style="opacity:1" fill="#f2f3f4" d="M 358.5,424.5 C 359.957,419.402 360.624,414.069 360.5,408.5C 360.5,404.5 360.5,400.5 360.5,396.5C 362.167,396.5 363.833,396.5 365.5,396.5C 367.086,412.561 366.753,428.561 364.5,444.5C 357.345,444.969 350.178,445.302 343,445.5C 336.841,445.721 330.841,445.054 325,443.5C 323.207,427.849 323.041,412.182 324.5,396.5C 328.119,395.756 331.785,395.423 335.5,395.5C 331.577,408.195 329.744,421.195 330,434.5C 338.351,436.737 346.851,438.403 355.5,439.5C 356.377,434.35 357.377,429.35 358.5,424.5 Z"/></g>
<g><path style="opacity:1" fill="#f3f4f5" d="M 395.5,405.5 C 394.515,409.634 394.182,413.968 394.5,418.5C 398.371,418.815 402.038,418.482 405.5,417.5C 408.5,417.5 411.5,417.5 414.5,417.5C 414.5,422.833 414.5,428.167 414.5,433.5C 413.87,437.004 413.203,440.504 412.5,444C 406.865,444.904 401.198,445.404 395.5,445.5C 389.491,445.666 383.491,445.499 377.5,445C 375.899,444.727 374.399,444.227 373,443.5C 371.167,427.854 371.001,412.187 372.5,396.5C 380.471,395.677 388.471,395.344 396.5,395.5C 396.54,398.881 396.207,402.214 395.5,405.5 Z"/></g>
<g><path style="opacity:1" fill="#374859" d="M 385.5,403.5 C 387.167,403.5 388.833,403.5 390.5,403.5C 390.916,408.493 391.249,413.493 391.5,418.5C 387.5,418.5 383.5,418.5 379.5,418.5C 379.35,413.699 380.016,409.033 381.5,404.5C 383.099,404.768 384.432,404.434 385.5,403.5 Z"/></g>
<g><path style="opacity:1" fill="#b4bac1" d="M 360.5,408.5 C 360.624,414.069 359.957,419.402 358.5,424.5C 358.527,418.949 359.194,413.616 360.5,408.5 Z"/></g>
<g><path style="opacity:1" fill="#314253" d="M 395.5,445.5 C 401.198,445.404 406.865,444.904 412.5,444C 413.203,440.504 413.87,437.004 414.5,433.5C 417.1,431.921 419.433,432.255 421.5,434.5C 429.022,429.449 436.855,425.116 445,421.5C 445.333,421.833 445.667,422.167 446,422.5C 446.309,421.234 446.809,420.067 447.5,419C 449.99,417.851 452.49,416.684 455,415.5C 458.287,415.87 461.287,416.87 464,418.5C 465.075,421.531 464.075,423.531 461,424.5C 460.55,426.519 459.717,428.352 458.5,430C 453.763,431.702 449.43,433.868 445.5,436.5C 445.64,442.195 442.807,445.195 437,445.5C 435.739,445.241 434.739,444.574 434,443.5C 418.182,453.904 401.849,463.237 385,471.5C 378.074,469.246 375.408,464.579 377,457.5C 382.531,456.405 387.698,454.238 392.5,451C 394.677,449.814 395.677,447.981 395.5,445.5 Z"/></g>
<g><path style="opacity:1" fill="#314253" d="M 570.5,416.5 C 566.338,425.493 561.672,434.16 556.5,442.5C 555.883,442.389 555.383,442.056 555,441.5C 551.131,445.259 546.631,446.425 541.5,445C 533.997,448.582 526.997,452.915 520.5,458C 518.608,458.973 516.608,459.64 514.5,460C 509.133,463.678 503.799,467.345 498.5,471C 496.098,471.814 493.765,471.647 491.5,470.5C 489.565,468.273 487.732,465.939 486,463.5C 485.579,456.928 488.746,454.095 495.5,455C 497.723,452.777 500.389,451.444 503.5,451C 505.694,449.193 507.027,446.86 507.5,444C 508.729,443.219 510.062,442.719 511.5,442.5C 513.155,443.388 514.822,443.888 516.5,444C 518.043,442.122 519.876,440.622 522,439.5C 522.31,435.19 524.643,432.857 529,432.5C 529.95,433.022 530.784,433.689 531.5,434.5C 542.582,429.123 553.249,422.957 563.5,416C 565.847,415.666 568.181,415.833 570.5,416.5 Z"/></g>
<g><path style="opacity:1" fill="#697682" d="M 395.5,405.5 C 395.5,409.5 395.5,413.5 395.5,417.5C 398.833,417.5 402.167,417.5 405.5,417.5C 402.038,418.482 398.371,418.815 394.5,418.5C 394.182,413.968 394.515,409.634 395.5,405.5 Z"/></g>
<g><path style="opacity:1" fill="#314254" d="M 378.5,422.5 C 387.833,422.5 397.167,422.5 406.5,422.5C 405.886,428.238 404.886,433.905 403.5,439.5C 394.801,438.384 386.134,437.05 377.5,435.5C 377.467,431.131 377.8,426.798 378.5,422.5 Z"/></g>
<g><path style="opacity:1" fill="#858f99" d="M 91.5,449.5 C 91.1667,449.5 90.8333,449.5 90.5,449.5C 85.5108,447.361 82.6775,443.695 82,438.5C 84.2869,442.952 87.4536,446.618 91.5,449.5 Z"/></g>
<g><path style="opacity:1" fill="#8f98a2" d="M 100.5,450.5 C 99.8444,451.278 99.0111,451.944 98,452.5C 97.2352,452.43 96.7352,452.097 96.5,451.5C 97.3764,451.631 98.0431,451.298 98.5,450.5C 97.4937,449.604 97.4937,448.938 98.5,448.5C 99.5223,448.855 100.189,449.522 100.5,450.5 Z"/></g>
<g><path style="opacity:1" fill="#eff0f2" d="M 90.5,449.5 C 90.8333,449.5 91.1667,449.5 91.5,449.5C 93.0495,450.441 94.7162,451.107 96.5,451.5C 96.7352,452.097 97.2352,452.43 98,452.5C 99.0111,451.944 99.8444,451.278 100.5,450.5C 101.96,452.463 103.627,454.296 105.5,456C 99.0929,457.812 94.0929,455.645 90.5,449.5 Z"/></g>
<g><path style="opacity:1" fill="#bdc2c8" d="M 108.5,465.5 C 112.073,466.563 113.906,468.896 114,472.5C 111.546,470.559 109.713,468.225 108.5,465.5 Z"/></g>
<g><path style="opacity:1" fill="#929ba4" d="M 99.5,471.5 C 98.8333,471.5 98.5,471.833 98.5,472.5C 96.4,469.896 94.0666,467.396 91.5,465C 94.8049,466.114 97.4716,468.281 99.5,471.5 Z"/></g>
<g><path style="opacity:1" fill="#a8b0b7" d="M 116.5,476.5 C 117.793,475.355 118.959,475.689 120,477.5C 120.982,478.759 121.315,480.092 121,481.5C 119.483,479.76 117.983,478.094 116.5,476.5 Z"/></g>
<g><path style="opacity:1" fill="#314253" d="M 156.5,540.5 C 153.016,536.866 150.016,532.866 147.5,528.5C 148.931,526.563 150.598,524.73 152.5,523C 154.235,522.349 155.902,522.515 157.5,523.5C 160.896,520.869 164.562,518.702 168.5,517C 169.688,509.953 173.355,508.119 179.5,511.5C 181.538,509.724 183.704,508.057 186,506.5C 186.945,500.384 189.945,499.051 195,502.5C 205.455,496.261 215.955,490.094 226.5,484C 230.317,482.977 233.817,483.477 237,485.5C 238.206,488.847 237.206,491.18 234,492.5C 233.598,493.872 233.098,495.205 232.5,496.5C 227.997,498.248 223.997,500.748 220.5,504C 218.807,511.178 214.473,513.678 207.5,511.5C 190.825,521.997 173.825,531.663 156.5,540.5 Z"/></g>
<g><path style="opacity:1" fill="#314253" d="M 339.5,483.5 C 342.672,483.928 345.672,484.095 348.5,484C 350.797,485.263 351.63,487.097 351,489.5C 348.656,492.211 346.489,495.044 344.5,498C 342.608,498.973 340.608,499.64 338.5,500C 336.983,501.685 335.316,503.185 333.5,504.5C 331.516,511.904 327.182,514.237 320.5,511.5C 305.589,520.876 290.256,529.709 274.5,538C 272.5,538.667 270.5,538.667 268.5,538C 267.667,535.833 266.167,534.333 264,533.5C 261.549,529.192 262.382,525.692 266.5,523C 267.899,522.405 269.232,522.572 270.5,523.5C 273.673,521.413 277.006,519.579 280.5,518C 282.004,516.509 282.837,514.676 283,512.5C 284.255,511.789 285.421,510.956 286.5,510C 289.167,510.333 291.833,510.667 294.5,511C 297.853,508.435 300.353,505.268 302,501.5C 304.185,500.242 306.352,500.242 308.5,501.5C 319.413,496.2 329.746,490.2 339.5,483.5 Z"/></g>
<g><path style="opacity:1" fill="#314253" d="M 452.5,483.5 C 455.972,484.121 459.305,484.454 462.5,484.5C 464.124,485.869 464.624,487.536 464,489.5C 461.656,492.211 459.489,495.044 457.5,498C 455.196,498.895 452.862,499.729 450.5,500.5C 449.636,502.197 448.303,503.363 446.5,504C 444.758,511.651 440.425,514.151 433.5,511.5C 428.945,514.564 424.278,517.397 419.5,520C 417.608,520.973 415.608,521.64 413.5,522C 412.833,523 412.167,524 411.5,525C 403.613,528.961 395.946,533.294 388.5,538C 386.167,538.667 383.833,538.667 381.5,538C 378.428,535.444 376.428,532.278 375.5,528.5C 376.55,523.593 379.383,521.927 384,523.5C 388.182,520.998 392.349,518.498 396.5,516C 395.483,514.951 395.316,513.784 396,512.5C 399.236,508.978 402.736,508.645 406.5,511.5C 408.17,510.005 410.003,508.672 412,507.5C 412.734,501.25 416.067,499.25 422,501.5C 426.273,500.56 429.773,498.393 432.5,495C 436.835,492.176 441.502,490.01 446.5,488.5C 448.531,486.825 450.531,485.159 452.5,483.5 Z"/></g>
<g><path style="opacity:1" fill="#b0b7be" d="M 507.5,504.5 C 508.239,504.369 508.906,504.536 509.5,505C 508.378,507.124 506.878,508.957 505,510.5C 505.483,508.463 506.316,506.463 507.5,504.5 Z"/></g>
<g><path style="opacity:1" fill="#d8dcdf" d="M 143.5,517.5 C 145.288,516.378 147.288,516.211 149.5,517C 150.731,518.183 150.731,519.349 149.5,520.5C 147.473,519.487 145.473,518.487 143.5,517.5 Z"/></g>
<g><path style="opacity:1" fill="#dfe2e5" d="M 487.5,521.5 C 488.552,521.351 489.552,521.517 490.5,522C 488.983,523.685 487.316,525.185 485.5,526.5C 485.167,526.167 484.833,525.833 484.5,525.5C 485.524,524.148 486.524,522.815 487.5,521.5 Z"/></g>
<g><path style="opacity:1" fill="#e4e6e8" d="M 471.5,535.5 C 469.585,535.784 467.919,535.451 466.5,534.5C 469.75,532.757 472.584,530.423 475,527.5C 474.16,530.193 472.993,532.86 471.5,535.5 Z"/></g>
<g><path style="opacity:1" fill="#77838f" d="M 466.5,534.5 C 467.919,535.451 469.585,535.784 471.5,535.5C 469.372,536.629 467.039,536.796 464.5,536C 465.044,535.283 465.711,534.783 466.5,534.5 Z"/></g>
<g><path style="opacity:1" fill="#eeeff1" d="M 210.5,554.5 C 209.791,555.404 208.791,555.737 207.5,555.5C 202.185,555.07 197.185,553.57 192.5,551C 191.24,549.186 191.24,547.353 192.5,545.5C 198.248,549.041 204.248,552.041 210.5,554.5 Z"/></g>
<g><path style="opacity:1" fill="#314253" d="M 114.5,550.5 C 117.487,550.998 120.487,551.498 123.5,552C 124.554,553.388 124.72,554.888 124,556.5C 121.87,558.587 120.37,561.087 119.5,564C 115.098,566.354 110.765,568.854 106.5,571.5C 105.8,577.031 102.634,580.031 97,580.5C 95.6739,580.245 94.6739,579.578 94,578.5C 87.3683,582.709 80.535,586.542 73.5,590C 64.5243,596.405 55.0243,601.905 45,606.5C 39.1618,604.209 35.9951,600.209 35.5,594.5C 38.0031,591.241 41.3365,589.741 45.5,590C 48.8021,587.426 52.4688,585.592 56.5,584.5C 55.4832,580.211 57.1498,577.878 61.5,577.5C 63.0293,577.529 64.196,578.196 65,579.5C 66.0674,578.809 67.2341,578.309 68.5,578C 69.5794,575.957 71.246,574.624 73.5,574C 72.3966,572.32 72.7299,570.82 74.5,569.5C 76.9809,567.195 79.3142,567.195 81.5,569.5C 85.1059,567.79 88.4392,565.79 91.5,563.5C 99.1801,559.02 106.847,554.686 114.5,550.5 Z"/></g>
<g><path style="opacity:1" fill="#344455" d="M 304.5,589.5 C 297.421,589.37 290.421,588.536 283.5,587C 287.133,585.231 289.467,582.398 290.5,578.5C 291.884,577.199 293.384,577.199 295,578.5C 295.667,576.5 297,575.167 299,574.5C 300.026,568.405 303.193,566.738 308.5,569.5C 319.51,564.004 330.177,557.837 340.5,551C 343.515,550.799 346.515,551.132 349.5,552C 350.167,553 350.833,554 351.5,555C 349.218,557.401 347.718,560.234 347,563.5C 342.331,565.949 337.831,568.615 333.5,571.5C 332.685,577.248 329.351,580.248 323.5,580.5C 322.353,580.182 321.519,579.516 321,578.5C 316.94,580.855 312.773,583.021 308.5,585C 306.808,586.307 305.475,587.807 304.5,589.5 Z"/></g>
<g><path style="opacity:1" fill="#314253" d="M 564.5,550.5 C 567.487,550.998 570.487,551.498 573.5,552C 574.554,553.388 574.72,554.888 574,556.5C 571.87,558.587 570.37,561.087 569.5,564C 565.098,566.354 560.765,568.854 556.5,571.5C 555.8,577.031 552.634,580.031 547,580.5C 545.674,580.245 544.674,579.578 544,578.5C 537.368,582.709 530.535,586.542 523.5,590C 514.524,596.405 505.024,601.905 495,606.5C 489.162,604.209 485.995,600.209 485.5,594.5C 488.003,591.241 491.336,589.741 495.5,590C 498.802,587.426 502.469,585.592 506.5,584.5C 505.483,580.211 507.15,577.878 511.5,577.5C 513.029,577.529 514.196,578.196 515,579.5C 516.067,578.809 517.234,578.309 518.5,578C 519.579,575.957 521.246,574.624 523.5,574C 522.397,572.32 522.73,570.82 524.5,569.5C 526.981,567.195 529.314,567.195 531.5,569.5C 535.106,567.79 538.439,565.79 541.5,563.5C 549.18,559.02 556.847,554.686 564.5,550.5 Z"/></g>
<g><path style="opacity:1" fill="#bec3c9" d="M 210.5,554.5 C 216.546,555.904 222.546,556.904 228.5,557.5C 225.287,557.19 222.287,557.523 219.5,558.5C 215.329,557.738 211.329,556.738 207.5,555.5C 208.791,555.737 209.791,555.404 210.5,554.5 Z"/></g>
<g><path style="opacity:1" fill="#dadde1" d="M 429.5,565.5 C 428.432,564.566 427.099,564.232 425.5,564.5C 425.263,563.209 425.596,562.209 426.5,561.5C 426.369,562.376 426.702,563.043 427.5,563.5C 428.736,562.754 430.07,562.421 431.5,562.5C 431.739,560.533 431.406,558.699 430.5,557C 432.5,556.667 434.5,556.333 436.5,556C 440.612,553.804 444.612,551.804 448.5,550C 441.397,554.274 435.064,559.441 429.5,565.5 Z"/></g>
<g><path style="opacity:1" fill="#e8e9eb" d="M 219.5,558.5 C 222.287,557.523 225.287,557.19 228.5,557.5C 230.138,558.657 231.804,559.824 233.5,561C 231.833,561.833 230.167,562.667 228.5,563.5C 225.924,561.046 222.924,559.379 219.5,558.5 Z"/></g>
<g><path style="opacity:1" fill="#9099a2" d="M 209.5,568.5 C 207.657,569.283 205.657,569.95 203.5,570.5C 202.893,570.376 202.56,570.043 202.5,569.5C 201.4,568.442 200.066,567.608 198.5,567C 197.304,566.346 197.304,565.846 198.5,565.5C 201.897,567.522 205.564,568.522 209.5,568.5 Z"/></g>
<g><path style="opacity:1" fill="#e7e9eb" d="M 236.5,572.5 C 239.961,571.889 242.628,573.056 244.5,576C 245.951,575.737 247.284,575.904 248.5,576.5C 245.554,577.655 242.554,577.821 239.5,577C 237.859,575.871 236.859,574.371 236.5,572.5 Z"/></g>
<g><path style="opacity:1" fill="#c2c8cd" d="M 400.5,572.5 C 401.675,572.281 402.675,572.614 403.5,573.5C 398.537,581.828 397.537,581.495 400.5,572.5 Z"/></g>
<g><path style="opacity:1" fill="#e2e4e6" d="M 304.5,576.5 C 307.85,576.335 311.183,576.502 314.5,577C 312.14,579.36 309.806,581.694 307.5,584C 303.718,585.703 300.052,585.703 296.5,584C 298.167,583.667 299.833,583.333 301.5,583C 300.483,581.951 300.316,580.784 301,579.5C 302.145,578.364 303.312,577.364 304.5,576.5 Z"/></g>
<g><path style="opacity:1" fill="#546371" d="M 276.5,601.5 C 275.158,602.793 273.491,603.626 271.5,604C 273.256,604.202 274.922,604.702 276.5,605.5C 275.833,605.833 275.167,606.167 274.5,606.5C 271.551,605.698 268.551,605.364 265.5,605.5C 268.66,603 272.327,601.667 276.5,601.5 Z"/></g>
<g><path style="opacity:1" fill="#bfc5ca" d="M 403.5,604.5 C 406.722,604.108 409.722,604.608 412.5,606C 407.79,606.52 403.123,606.854 398.5,607C 400.315,606.243 401.981,605.41 403.5,604.5 Z"/></g>
</svg>
