<?xml version="1.0" encoding="UTF-8"?>
<!DOCTYPE svg PUBLIC "-//W3C//DTD SVG 1.1//EN" "http://www.w3.org/Graphics/SVG/1.1/DTD/svg11.dtd">
<svg xmlns="http://www.w3.org/2000/svg" version="1.1" width="590px" height="601px" style="shape-rendering:geometricPrecision; text-rendering:geometricPrecision; image-rendering:optimizeQuality; fill-rule:evenodd; clip-rule:evenodd" xmlns:xlink="http://www.w3.org/1999/xlink">
<g><path style="opacity:1" fill="#695d79" d="M -0.5,-0.5 C 196.167,-0.5 392.833,-0.5 589.5,-0.5C 589.5,199.833 589.5,400.167 589.5,600.5C 392.833,600.5 196.167,600.5 -0.5,600.5C -0.5,400.167 -0.5,199.833 -0.5,-0.5 Z"/></g>
<g><path style="opacity:1" fill="#a199ab" d="M 294.5,20.5 C 291.609,19.5975 288.609,19.2641 285.5,19.5C 289.969,18.1933 294.635,17.6933 299.5,18C 297.509,18.3736 295.842,19.207 294.5,20.5 Z"/></g>
<g><path style="opacity:1" fill="#e4e2e7" d="M 285.5,19.5 C 288.609,19.2641 291.609,19.5975 294.5,20.5C 296.647,22.4695 298.98,24.3029 301.5,26C 298.167,26.3333 294.833,26.6667 291.5,27C 288.399,29.3508 285.066,29.8508 281.5,28.5C 281.833,28.1667 282.167,27.8333 282.5,27.5C 284.988,26.9752 287.321,26.1419 289.5,25C 285.971,23.5343 282.305,22.5343 278.5,22C 278.043,21.586 277.709,21.086 277.5,20.5C 280.086,19.52 282.753,19.1866 285.5,19.5 Z"/></g>
<g><path style="opacity:1" fill="#f0eff2" d="M 318.5,22.5 C 321.518,22.3354 324.518,22.502 327.5,23C 329.291,23.4152 330.624,24.4152 331.5,26C 341.549,26.1349 351.549,26.8016 361.5,28C 372.357,35.2526 384.357,39.4192 397.5,40.5C 398.211,47.7092 402.211,51.2092 409.5,51C 406.833,51.3333 404.167,51.6667 401.5,52C 401,52.5 400.5,53 400,53.5C 395.24,46.7038 388.74,42.8704 380.5,42C 375.299,39.8247 370.133,37.6581 365,35.5C 362.744,37.0855 360.244,37.7521 357.5,37.5C 357.822,35.2776 357.155,33.4443 355.5,32C 353.079,30.4203 350.413,29.5869 347.5,29.5C 341.924,31.4536 336.257,33.1202 330.5,34.5C 330.845,31.512 329.512,30.1787 326.5,30.5C 322.365,31.4845 318.532,33.1511 315,35.5C 314.5,35.3333 314,35.1667 313.5,35C 315.167,33.3333 316.833,31.6667 318.5,30C 317.833,29.6667 317.167,29.3333 316.5,29C 313.022,28.6605 309.688,29.1605 306.5,30.5C 305.167,30.1667 303.833,29.8333 302.5,29.5C 306.527,27.5447 310.86,26.0447 315.5,25C 316.942,24.6232 317.942,23.7899 318.5,22.5 Z"/></g>
<g><path style="opacity:1" fill="#aca5b5" d="M 283.5,32.5 C 286.301,33.3774 288.968,34.5441 291.5,36C 287.789,36.8253 284.122,36.6586 280.5,35.5C 281.77,34.7124 282.77,33.7124 283.5,32.5 Z"/></g>
<g><path style="opacity:1" fill="#ebe9ed" d="M 416.5,57.5 C 427.011,57.5874 435.011,62.0874 440.5,71C 444.217,74.3847 448.217,77.3847 452.5,80C 444.849,77.1025 436.849,75.1025 428.5,74C 424.204,72.185 420.204,69.8517 416.5,67C 417.5,66.3333 418.5,66.3333 419.5,67C 422.89,70.1957 426.89,72.029 431.5,72.5C 431.719,71.325 431.386,70.325 430.5,69.5C 425.449,65.7703 420.783,61.7703 416.5,57.5 Z"/></g>
<g><path style="opacity:1" fill="#d5d2da" d="M 444.5,82.5 C 446.263,81.6655 447.93,82.1655 449.5,84C 447.505,84.6128 445.838,84.1128 444.5,82.5 Z"/></g>
<g><path style="opacity:1" fill="#e9e7eb" d="M 464.5,92.5 C 465.251,91.4265 466.251,91.2599 467.5,92C 471.781,94.9438 474.448,98.9438 475.5,104C 475.167,104.5 474.833,105 474.5,105.5C 470.613,103.301 468.446,99.968 468,95.5C 466.961,94.2899 465.794,93.2899 464.5,92.5 Z"/></g>
<g><path style="opacity:1" fill="#f7f6f7" d="M 79.5,456.5 C 81.7144,456.709 83.381,455.876 84.5,454C 83.4962,452.202 82.9962,450.368 83,448.5C 92.0342,460.201 102.368,470.534 114,479.5C 122.454,495.477 132.954,509.977 145.5,523C 149.433,524.696 153.433,526.029 157.5,527C 155.203,528.263 154.37,530.097 155,532.5C 157.994,534.373 161.161,535.873 164.5,537C 162.5,537.667 160.5,537.667 158.5,537C 155.52,534.676 152.187,533.176 148.5,532.5C 148.297,534.39 148.963,535.89 150.5,537C 153.509,538.504 156.509,540.004 159.5,541.5C 157.926,542.631 156.259,542.798 154.5,542C 152.664,540.581 150.664,539.414 148.5,538.5C 145.921,539.888 145.921,541.388 148.5,543C 153.353,547.174 159.02,549.174 165.5,549C 161.354,550.595 157.02,550.928 152.5,550C 139.572,540.526 126.238,531.526 112.5,523C 108.5,519 104.5,515 100.5,511C 102.134,510.506 103.801,510.34 105.5,510.5C 105.378,506.853 103.712,504.019 100.5,502C 96.7665,501.934 93.2665,501.101 90,499.5C 79.2927,487.795 68.9593,475.795 59,463.5C 56.792,460.446 55.792,457.113 56,453.5C 57.2223,458.084 60.0556,460.25 64.5,460C 57.4281,448.53 50.0948,437.196 42.5,426C 44.6496,423.445 44.9829,420.612 43.5,417.5C 40.0187,415.554 37.1854,412.887 35,409.5C 29.5487,400.259 24.382,390.925 19.5,381.5C 21.6847,379.892 23.0181,377.725 23.5,375C 23.7868,370.1 21.7868,368.6 17.5,370.5C 17.219,365.435 17.5524,360.435 18.5,355.5C 17.7528,355.264 16.9195,354.93 16,354.5C 11.5261,347.135 9.19276,339.135 9,330.5C 8.69746,315.437 8.03079,300.437 7,285.5C 8.44003,290.476 9.77337,295.476 11,300.5C 11.9653,302.26 13.132,302.594 14.5,301.5C 13.7002,294.216 13.2002,286.883 13,279.5C 11.9887,278.663 10.8221,278.33 9.5,278.5C 9.0997,264.702 10.2664,251.035 13,237.5C 14.662,231.341 17.4954,225.841 21.5,221C 19.7532,218.02 19.2532,214.853 20,211.5C 23.7124,200.406 27.7124,189.406 32,178.5C 33.3333,179.833 34.6667,179.833 36,178.5C 38.0336,172.349 40.3669,166.349 43,160.5C 43.3333,161.833 43.6667,163.167 44,164.5C 57.5458,136.075 76.3792,111.742 100.5,91.5C 101.386,92.325 101.719,93.325 101.5,94.5C 104.099,94.4506 106.266,93.4506 108,91.5C 108.498,88.1832 108.665,84.8499 108.5,81.5C 110.262,81.6427 111.929,81.3094 113.5,80.5C 114.245,78.2529 115.578,76.4196 117.5,75C 122.781,71.7195 127.447,67.7195 131.5,63C 142.494,60.1491 153.161,57.1491 163.5,54C 164.759,53.0766 166.092,52.2432 167.5,51.5C 166.332,50.0944 166.665,48.9277 168.5,48C 188.001,36.5304 209.001,28.8637 231.5,25C 246.057,22.3247 260.724,20.8247 275.5,20.5C 275.5,22.1667 275.5,23.8333 275.5,25.5C 268.112,25.2534 260.779,25.7534 253.5,27C 240.667,32.375 227.334,35.875 213.5,37.5C 213.5,35.8333 213.5,34.1667 213.5,32.5C 210.089,33.3597 206.756,34.5263 203.5,36C 202.084,38.8349 200.417,41.5015 198.5,44C 195.588,45.3726 192.754,46.8726 190,48.5C 189.517,47.552 189.351,46.552 189.5,45.5C 184.649,45.3704 179.982,46.2038 175.5,48C 171.833,53 167.5,57.3333 162.5,61C 155.008,66.5798 147.341,71.9131 139.5,77C 138.668,77.6877 138.002,77.521 137.5,76.5C 142.821,72.511 147.821,68.1777 152.5,63.5C 142.675,67.3964 133.842,73.3964 126,81.5C 122.252,89.2681 116.919,95.9348 110,101.5C 108.333,104.5 106.667,107.5 105,110.5C 103.158,106.557 104.158,103.224 108,100.5C 109.59,98.3502 110.257,96.0168 110,93.5C 106.667,96.8333 103.333,100.167 100,103.5C 99.9519,101.456 100.452,99.4559 101.5,97.5C 100.277,96.3861 98.9437,96.2195 97.5,97C 93.9038,102.197 93.5705,107.697 96.5,113.5C 95.1957,117.654 93.1957,121.487 90.5,125C 81.0759,127.974 72.9093,133.141 66,140.5C 65.8822,146.44 64.7155,152.107 62.5,157.5C 63.9778,157.238 65.3112,157.571 66.5,158.5C 66.3333,158.833 66.1667,159.167 66,159.5C 63.631,159.727 61.131,159.893 58.5,160C 51.1022,165.726 47.9355,173.226 49,182.5C 46.278,187.486 45.4447,187.486 46.5,182.5C 46.5177,180.627 46.0177,180.294 45,181.5C 40.8476,194.808 35.8476,207.808 30,220.5C 27.7554,227.346 27.0887,234.346 28,241.5C 28.2704,238.638 29.1038,235.972 30.5,233.5C 37.9174,235.738 39.4174,240.071 35,246.5C 32.8992,247.615 30.7325,247.615 28.5,246.5C 26.9707,246.529 25.804,247.196 25,248.5C 23.6108,244.056 21.9442,239.723 20,235.5C 19.6667,236.5 19.3333,237.5 19,238.5C 18.9335,253.507 19.4335,268.507 20.5,283.5C 20.4245,287.198 20.0911,290.865 19.5,294.5C 23.0588,304.941 24.3921,315.608 23.5,326.5C 25.8333,329.5 28.5,332.167 31.5,334.5C 31.8333,334.167 32.1667,333.833 32.5,333.5C 31.7827,331.172 30.7827,329.005 29.5,327C 30.1021,325.437 30.9354,325.604 32,327.5C 34.8506,337.422 38.3506,347.089 42.5,356.5C 42.3333,357.167 42.1667,357.833 42,358.5C 39.0471,352.975 37.0471,353.308 36,359.5C 35.3164,354.447 33.6497,349.78 31,345.5C 30.7508,346.624 30.2508,347.624 29.5,348.5C 27.2466,347.747 25.4133,346.414 24,344.5C 23.2937,346.971 23.627,349.305 25,351.5C 27,353.5 29,355.5 31,357.5C 33.6479,367.089 35.8145,376.755 37.5,386.5C 35.2245,390.952 35.7245,395.285 39,399.5C 41.0424,401.604 43.5424,402.771 46.5,403C 47.5189,406.048 49.5189,407.381 52.5,407C 50.6067,404.083 50.1067,400.916 51,397.5C 53.1301,400.23 55.7968,402.23 59,403.5C 59.6667,405.833 59.6667,408.167 59,410.5C 57.3333,408.833 55.6667,407.167 54,405.5C 55.1966,409.787 54.5299,413.787 52,417.5C 51.3333,419.167 51.3333,420.833 52,422.5C 56.4851,426.408 61.1518,430.074 66,433.5C 68.3317,436.822 69.4984,440.489 69.5,444.5C 65.4862,444.334 61.4862,444.501 57.5,445C 63.9604,453.129 70.7938,460.963 78,468.5C 86.3413,482.507 97.6746,493.507 112,501.5C 112.833,501.333 113.667,501.167 114.5,501C 112.076,497.494 109.41,494.161 106.5,491C 108.037,489.89 108.703,488.39 108.5,486.5C 104.396,486.116 100.729,484.616 97.5,482C 90.9008,476.239 85.2342,469.739 80.5,462.5C 80.8333,462.167 81.1667,461.833 81.5,461.5C 82.916,463.139 84.5826,463.973 86.5,464C 83.9614,461.63 81.6281,459.13 79.5,456.5 Z"/></g>
<g><path style="opacity:1" fill="#eceaee" d="M 482.5,107.5 C 482.897,106.475 483.563,106.308 484.5,107C 488.77,112.109 493.77,116.275 499.5,119.5C 500.429,120.689 500.762,122.022 500.5,123.5C 495.017,123.924 490.683,121.924 487.5,117.5C 488.676,112.948 487.009,109.614 482.5,107.5 Z"/></g>
<g><path style="opacity:1" fill="#eeedf0" d="M 495.5,128.5 C 500.617,130.476 505.45,132.81 510,135.5C 511.595,137.425 511.762,139.425 510.5,141.5C 513.171,144.837 515.337,148.504 517,152.5C 519.66,159.831 521.993,167.165 524,174.5C 520.937,171.497 519.104,167.831 518.5,163.5C 515.909,161.62 513.409,159.62 511,157.5C 511.422,154.902 511.422,152.236 511,149.5C 509.226,146.285 507.726,142.952 506.5,139.5C 503.144,137.774 499.977,135.774 497,133.5C 495.991,131.975 495.491,130.308 495.5,128.5 Z"/></g>
<g><path style="opacity:1" fill="#e8e7eb" d="M 70.5,142.5 C 75.1136,144.297 75.6136,146.964 72,150.5C 71.1904,148.694 70.0238,147.194 68.5,146C 68.9783,144.697 69.645,143.531 70.5,142.5 Z"/></g>
<g><path style="opacity:1" fill="#fcfcfc" d="M 297.5,150.5 C 297.5,188.5 297.5,226.5 297.5,264.5C 289.833,264.5 282.167,264.5 274.5,264.5C 274.333,232.498 274.5,200.498 275,168.5C 282.375,162.286 289.875,156.286 297.5,150.5 Z"/></g>
<g><path style="opacity:1" fill="#edebef" d="M 530.5,185.5 C 532.833,186.167 535.167,186.833 537.5,187.5C 537.5,189.833 537.5,192.167 537.5,194.5C 539.167,194.5 540.833,194.5 542.5,194.5C 542.832,198.493 543.165,202.493 543.5,206.5C 543.756,210.123 542.923,213.456 541,216.5C 540.347,211.707 539.18,207.041 537.5,202.5C 537.667,201.833 537.833,201.167 538,200.5C 541.724,204.44 542.39,203.773 540,198.5C 535.43,195.111 532.264,190.777 530.5,185.5 Z"/></g>
<g><path style="opacity:1" fill="#363636" d="M 296.5,149.5 C 297.167,149.5 297.5,149.833 297.5,150.5C 289.875,156.286 282.375,162.286 275,168.5C 274.5,200.498 274.333,232.498 274.5,264.5C 270.727,263.897 267.061,263.23 263.5,262.5C 266.5,262.5 269.5,262.5 272.5,262.5C 272.5,238.833 272.5,215.167 272.5,191.5C 273.492,184.018 273.825,176.352 273.5,168.5C 280.574,161.461 288.241,155.128 296.5,149.5 Z"/></g>
<g><path style="opacity:1" fill="#a8a1b2" d="M 545.5,228.5 C 544.553,230.455 543.219,230.789 541.5,229.5C 540.702,229.957 540.369,230.624 540.5,231.5C 539.152,230.473 538.652,229.14 539,227.5C 540.751,228.809 542.251,228.475 543.5,226.5C 544.522,226.855 545.189,227.522 545.5,228.5 Z"/></g>
<g><path style="opacity:1" fill="#efedf0" d="M 545.5,228.5 C 546.939,241.975 545.273,242.975 540.5,231.5C 540.369,230.624 540.702,229.957 541.5,229.5C 543.219,230.789 544.553,230.455 545.5,228.5 Z"/></g>
<g><path style="opacity:1" fill="#4b4357" d="M 341.5,198.5 C 342.497,219.66 342.831,240.993 342.5,262.5C 346.371,262.185 350.038,262.518 353.5,263.5C 349.5,263.5 345.5,263.5 341.5,263.5C 341.5,241.833 341.5,220.167 341.5,198.5 Z"/></g>
<g><path style="opacity:1" fill="#141415" d="M 341.5,198.5 C 341.5,220.167 341.5,241.833 341.5,263.5C 345.5,263.5 349.5,263.5 353.5,263.5C 354.779,266.002 354.779,268.502 353.5,271C 312.835,271.5 272.168,271.667 231.5,271.5C 231.223,268.552 231.556,265.719 232.5,263C 236.152,262.501 239.818,262.335 243.5,262.5C 243.333,239.831 243.5,217.164 244,194.5C 249.659,190.502 255.326,186.502 261,182.5C 264.561,184.03 268.061,185.697 271.5,187.5C 272.167,181.012 272.833,174.679 273.5,168.5C 273.825,176.352 273.492,184.018 272.5,191.5C 269.581,190.707 266.915,189.374 264.5,187.5C 263.5,212.491 263.167,237.491 263.5,262.5C 267.061,263.23 270.727,263.897 274.5,264.5C 282.167,264.5 289.833,264.5 297.5,264.5C 297.5,226.5 297.5,188.5 297.5,150.5C 297.5,149.833 297.167,149.5 296.5,149.5C 297.854,146.302 300.187,145.136 303.5,146C 307.667,150.167 311.833,154.333 316,158.5C 316.167,171.846 316.667,185.179 317.5,198.5C 321.1,195.783 324.933,193.45 329,191.5C 333.503,193.376 337.67,195.709 341.5,198.5 Z"/></g>
<g><path style="opacity:1" fill="#d0cfd0" d="M 312.5,159.5 C 313.498,183.994 313.831,208.661 313.5,233.5C 312.508,233.672 311.842,233.338 311.5,232.5C 312.498,208.339 312.831,184.006 312.5,159.5 Z"/></g>
<g><path style="opacity:1" fill="#868686" d="M 325.5,197.5 C 325.56,196.957 325.893,196.624 326.5,196.5C 327.5,214.154 327.833,231.821 327.5,249.5C 326.508,249.672 325.842,249.338 325.5,248.5C 326.833,231.5 326.833,214.5 325.5,197.5 Z"/></g>
<g><path style="opacity:1" fill="#f9f9f9" d="M 325.5,197.5 C 326.833,214.5 326.833,231.5 325.5,248.5C 322.49,245.126 319.49,241.792 316.5,238.5C 316.333,226.495 316.5,214.495 317,202.5C 319.614,200.444 322.447,198.777 325.5,197.5 Z"/></g>
<g><path style="opacity:1" fill="#f7f7f7" d="M 330.5,194.5 C 333.486,195.808 336.486,197.141 339.5,198.5C 340.5,220.49 340.833,242.49 340.5,264.5C 336.833,264.5 333.167,264.5 329.5,264.5C 329.169,240.994 329.502,217.661 330.5,194.5 Z"/></g>
<g><path style="opacity:1" fill="#d2d2d2" d="M 330.5,194.5 C 329.502,217.661 329.169,240.994 329.5,264.5C 328.171,240.997 328.171,217.33 329.5,193.5C 330.107,193.624 330.44,193.957 330.5,194.5 Z"/></g>
<g><path style="opacity:1" fill="#fefefe" d="M 272.5,191.5 C 272.5,215.167 272.5,238.833 272.5,262.5C 269.5,262.5 266.5,262.5 263.5,262.5C 263.167,237.491 263.5,212.491 264.5,187.5C 266.915,189.374 269.581,190.707 272.5,191.5 Z"/></g>
<g><path style="opacity:1" fill="#fbfbfb" d="M 260.5,184.5 C 261.498,210.995 261.831,237.661 261.5,264.5C 256.167,264.5 250.833,264.5 245.5,264.5C 245.167,241.157 245.5,217.824 246.5,194.5C 251.487,191.498 256.153,188.164 260.5,184.5 Z"/></g>
<g><path style="opacity:1" fill="#fcfcfc" d="M 312.5,159.5 C 312.831,184.006 312.498,208.339 311.5,232.5C 307.503,228.335 303.67,224.002 300,219.5C 299.5,196.502 299.333,173.502 299.5,150.5C 300.738,149.588 302.072,149.421 303.5,150C 306.732,153.062 309.732,156.229 312.5,159.5 Z"/></g>
<g><path style="opacity:1" fill="#655a75" d="M 316.5,238.5 C 319.49,241.792 322.49,245.126 325.5,248.5C 325.842,249.338 326.508,249.672 327.5,249.5C 327.5,253.833 327.5,258.167 327.5,262.5C 323.833,262.5 320.167,262.5 316.5,262.5C 316.5,254.5 316.5,246.5 316.5,238.5 Z"/></g>
<g><path style="opacity:1" fill="#e8e6eb" d="M 542.5,246.5 C 544.837,248.666 547.337,250.666 550,252.5C 550.667,255.5 550.667,258.5 550,261.5C 546.445,257.056 543.945,252.056 542.5,246.5 Z"/></g>
<g><path style="opacity:1" fill="#645972" d="M 299.5,150.5 C 299.333,173.502 299.5,196.502 300,219.5C 303.67,224.002 307.503,228.335 311.5,232.5C 311.842,233.338 312.508,233.672 313.5,233.5C 313.5,243.5 313.5,253.5 313.5,263.5C 308.57,263.803 303.737,263.469 299,262.5C 298.169,224.998 298.336,187.664 299.5,150.5 Z"/></g>
<g><path style="opacity:1" fill="#545454" d="M 350.5,266.5 C 311.819,265.839 273.485,266.506 235.5,268.5C 234.596,267.791 234.263,266.791 234.5,265.5C 273.337,265.168 312.004,265.501 350.5,266.5 Z"/></g>
<g><path style="opacity:1" fill="#d3d3d3" d="M 350.5,266.5 C 312.515,268.494 274.181,269.161 235.5,268.5C 273.485,266.506 311.819,265.839 350.5,266.5 Z"/></g>
<g><path style="opacity:1" fill="#d5d2da" d="M 547.5,285.5 C 549.045,286.23 549.878,287.563 550,289.5C 550.703,298.434 549.537,298.434 546.5,289.5C 547.246,288.264 547.579,286.93 547.5,285.5 Z"/></g>
<g><path style="opacity:1" fill="#e0dee4" d="M 31.5,282.5 C 33.1742,290.288 33.6742,298.288 33,306.5C 31.8063,304.377 31.1397,302.043 31,299.5C 30.2153,293.751 30.3819,288.084 31.5,282.5 Z"/></g>
<g><path style="opacity:1" fill="#e7e5ea" d="M 575.5,298.5 C 576.787,299.871 577.453,301.705 577.5,304C 577.333,305.833 577.167,307.667 577,309.5C 576.586,309.957 576.086,310.291 575.5,310.5C 574.104,309.148 573.437,307.481 573.5,305.5C 573.886,303.068 574.553,300.734 575.5,298.5 Z"/></g>
<g><path style="opacity:1" fill="#f9f8f9" d="M 331.5,567.5 C 321.161,567.334 310.828,567.5 300.5,568C 298.277,568.566 296.277,569.4 294.5,570.5C 292.139,571.435 289.972,572.768 288,574.5C 289.131,576.977 288.631,579.143 286.5,581C 278.993,585.157 270.993,586.491 262.5,585C 261.549,584.282 261.383,583.449 262,582.5C 268.626,581.635 274.793,579.469 280.5,576C 283.07,573.933 285.07,571.433 286.5,568.5C 279.346,566.102 272.013,564.935 264.5,565C 265.833,566.667 265.833,568.333 264.5,570C 253.398,571.939 242.732,575.106 232.5,579.5C 223.218,578.037 213.885,576.87 204.5,576C 200.708,575.311 198.708,573.144 198.5,569.5C 185.123,569.839 174.456,564.839 166.5,554.5C 167.167,554.167 167.833,553.833 168.5,553.5C 173.088,555.42 177.755,557.254 182.5,559C 185.227,559.818 187.894,559.652 190.5,558.5C 183.505,555.67 176.505,552.836 169.5,550C 168.643,549.311 167.977,548.478 167.5,547.5C 169.725,545.89 172.059,544.557 174.5,543.5C 179.434,543.771 184.1,543.104 188.5,541.5C 193.087,540.634 197.42,541.634 201.5,544.5C 202.761,546.562 202.261,548.228 200,549.5C 199.503,552.146 199.336,554.813 199.5,557.5C 221.657,558.056 243.49,555.723 265,550.5C 265.833,550.667 266.667,550.833 267.5,551C 264.833,553.667 262.167,556.333 259.5,559C 272.697,562.033 286.03,562.866 299.5,561.5C 301.837,558.678 304.837,556.845 308.5,556C 314.864,554.425 321.197,553.091 327.5,552C 324.5,554.167 321.5,556.333 318.5,558.5C 319.167,558.833 319.833,559.167 320.5,559.5C 329.147,558.793 337.814,558.626 346.5,559C 348.306,557.194 350.14,555.36 352,553.5C 354.291,556.835 353.791,559.668 350.5,562C 354.202,561.824 357.535,560.49 360.5,558C 363.972,556.501 367.472,556.334 371,557.5C 379.799,555.071 382.965,549.571 380.5,541C 380.395,538.822 381.061,536.988 382.5,535.5C 386.209,532.93 390.209,530.93 394.5,529.5C 394.425,532.206 394.092,534.873 393.5,537.5C 397.8,537.185 399.467,534.851 398.5,530.5C 400.199,530.66 401.866,530.494 403.5,530C 406.23,527.796 409.23,526.463 412.5,526C 406.884,529.616 401.884,533.949 397.5,539C 407.116,533.863 417.116,529.197 427.5,525C 432.292,522.039 436.625,518.539 440.5,514.5C 441.562,515.425 441.562,516.425 440.5,517.5C 438.8,520.752 437.466,524.252 436.5,528C 436.667,528.833 436.833,529.667 437,530.5C 438.264,528.393 440.097,527.393 442.5,527.5C 442.256,530.263 440.923,532.429 438.5,534C 434.217,536.615 430.217,539.615 426.5,543C 428.833,543.667 431.167,543.667 433.5,543C 441.212,536.286 449.212,529.953 457.5,524C 458.742,523.689 459.742,524.189 460.5,525.5C 461.086,525.291 461.586,524.957 462,524.5C 466.564,516.495 470.564,508.161 474,499.5C 477.131,495.367 480.631,491.534 484.5,488C 482.329,486.826 481.329,484.993 481.5,482.5C 482.5,482.5 483.5,482.5 484.5,482.5C 485.084,479.33 485.75,476.163 486.5,473C 485.875,471.159 485.708,469.326 486,467.5C 509.437,439.971 527.771,409.304 541,375.5C 541.17,381.528 541.67,387.528 542.5,393.5C 543.086,393.291 543.586,392.957 544,392.5C 543.513,373.389 547.513,355.389 556,338.5C 556.858,343.665 558.191,348.665 560,353.5C 561.761,345.202 561.928,336.869 560.5,328.5C 561.759,323.204 562.759,317.87 563.5,312.5C 564.675,312.281 565.675,312.614 566.5,313.5C 571.888,319.461 573.888,326.461 572.5,334.5C 564.98,403.707 535.98,462.207 485.5,510C 464.293,529.523 440.627,545.523 414.5,558C 375.129,571.877 334.795,582.21 293.5,589C 289.5,589.667 285.5,589.667 281.5,589C 284.99,586.089 288.656,583.422 292.5,581C 295.702,579.517 299.036,579.183 302.5,580C 295.298,582.723 295.132,584.556 302,585.5C 305.552,585.359 309.052,584.859 312.5,584C 313.548,582.244 313.548,580.41 312.5,578.5C 312.529,576.971 313.196,575.804 314.5,575C 316.649,574.421 318.815,573.921 321,573.5C 325.326,575.855 329.826,576.022 334.5,574C 337.502,571.497 340.835,569.497 344.5,568C 346.26,567.035 346.594,565.868 345.5,564.5C 340.923,565.929 336.256,566.929 331.5,567.5 Z"/></g>
<g><path style="opacity:1" fill="#f8f7f8" d="M 98.5,316.5 C 109.854,316.34 121.187,316.674 132.5,317.5C 132.5,318.833 132.5,320.167 132.5,321.5C 122.337,321.249 112.337,322.416 102.5,325C 99.602,334.571 98.2687,344.404 98.5,354.5C 109.807,356.013 121.141,357.346 132.5,358.5C 132.67,359.822 132.337,360.989 131.5,362C 120.544,363.517 109.544,363.85 98.5,363C 96.8988,362.727 95.3988,362.227 94,361.5C 92.1888,346.852 92.0221,332.186 93.5,317.5C 95.4147,317.784 97.0813,317.451 98.5,316.5 Z"/></g>
<g><path style="opacity:1" fill="#f6f6f7" d="M 142.5,316.5 C 153.85,316.407 165.183,316.741 176.5,317.5C 177.742,332.494 177.742,347.494 176.5,362.5C 169.511,362.961 162.511,363.294 155.5,363.5C 149.507,363.716 143.673,363.05 138,361.5C 136.189,346.852 136.022,332.186 137.5,317.5C 139.415,317.784 141.081,317.451 142.5,316.5 Z"/></g>
<g><path style="opacity:1" fill="#f4f3f5" d="M 188.5,316.5 C 199.85,316.407 211.183,316.741 222.5,317.5C 224.138,332.563 223.805,347.563 221.5,362.5C 218.073,362.976 214.74,362.976 211.5,362.5C 215.342,349.116 217.342,335.449 217.5,321.5C 213.202,322.2 208.869,322.533 204.5,322.5C 204.145,336.235 204.812,349.902 206.5,363.5C 204.167,363.5 201.833,363.5 199.5,363.5C 200.404,350.192 200.737,336.859 200.5,323.5C 197.572,323.852 194.738,324.518 192,325.5C 189.051,337.652 187.551,349.985 187.5,362.5C 186.178,362.67 185.011,362.337 184,361.5C 182.256,346.843 182.089,332.177 183.5,317.5C 185.415,317.784 187.081,317.451 188.5,316.5 Z"/></g>
<g><path style="opacity:1" fill="#f7f7f8" d="M 233.5,316.5 C 244.854,316.34 256.187,316.674 267.5,317.5C 268.758,332.484 268.758,347.484 267.5,362.5C 264.14,362.616 260.807,362.949 257.5,363.5C 260.527,349.644 262.527,335.644 263.5,321.5C 259.119,321.372 254.785,321.705 250.5,322.5C 250.329,336.184 250.662,349.851 251.5,363.5C 249.5,363.5 247.5,363.5 245.5,363.5C 246.247,350.18 246.58,336.847 246.5,323.5C 243.545,324.159 240.545,324.492 237.5,324.5C 234.667,336.988 233.334,349.655 233.5,362.5C 232.167,362.5 230.833,362.5 229.5,362.5C 228.202,347.489 228.202,332.489 229.5,317.5C 231.099,317.768 232.432,317.434 233.5,316.5 Z"/></g>
<g><path style="opacity:1" fill="#f6f6f7" d="M 321.5,316.5 C 324.85,316.335 328.183,316.502 331.5,317C 330.39,319.737 330.223,322.571 331,325.5C 337.529,333.875 344.529,341.875 352,349.5C 354.154,338.937 355.32,328.27 355.5,317.5C 356.833,317.5 358.167,317.5 359.5,317.5C 360.696,332.49 360.696,347.49 359.5,362.5C 356.193,363.051 352.86,363.384 349.5,363.5C 350.135,360.507 350.301,357.507 350,354.5C 343.361,346.027 336.194,338.027 328.5,330.5C 325.908,341.001 324.908,351.668 325.5,362.5C 323.833,362.5 322.167,362.5 320.5,362.5C 320.183,347.089 320.517,331.755 321.5,316.5 Z"/></g>
<g><path style="opacity:1" fill="#f6f6f7" d="M 369.5,316.5 C 380.854,316.34 392.187,316.674 403.5,317.5C 403.5,318.833 403.5,320.167 403.5,321.5C 397.839,321.907 392.172,322.24 386.5,322.5C 386.5,334.167 386.5,345.833 386.5,357.5C 392.172,357.76 397.839,358.093 403.5,358.5C 403.5,359.833 403.5,361.167 403.5,362.5C 390.496,363.78 377.496,363.78 364.5,362.5C 364.5,359.167 364.5,355.833 364.5,352.5C 369.881,353.62 375.214,354.953 380.5,356.5C 381.086,356.291 381.586,355.957 382,355.5C 382.5,344.839 382.667,334.172 382.5,323.5C 376.607,323.912 370.941,325.246 365.5,327.5C 364.513,324.232 364.18,320.898 364.5,317.5C 366.415,317.784 368.081,317.451 369.5,316.5 Z"/></g>
<g><path style="opacity:1" fill="#f6f6f7" d="M 409.5,316.5 C 421.518,316.358 433.518,316.691 445.5,317.5C 445.5,318.833 445.5,320.167 445.5,321.5C 439.788,321.313 434.121,321.646 428.5,322.5C 428.355,336.183 428.688,349.85 429.5,363.5C 427.5,363.5 425.5,363.5 423.5,363.5C 424.358,350.187 424.691,336.853 424.5,323.5C 418.337,324.224 412.337,325.557 406.5,327.5C 406.551,323.462 407.551,319.795 409.5,316.5 Z"/></g>
<g><path style="opacity:1" fill="#f3f2f4" d="M 451.5,316.5 C 454.898,316.18 458.232,316.513 461.5,317.5C 459.016,323.921 457.682,330.588 457.5,337.5C 466.5,337.5 475.5,337.5 484.5,337.5C 484.954,330.841 485.287,324.174 485.5,317.5C 486.833,317.5 488.167,317.5 489.5,317.5C 490.371,325.8 490.705,334.133 490.5,342.5C 484.464,342.64 478.464,342.307 472.5,341.5C 472.365,348.862 472.698,356.196 473.5,363.5C 471.167,363.5 468.833,363.5 466.5,363.5C 467.636,356.213 468.303,348.88 468.5,341.5C 462.131,341.347 455.797,341.68 449.5,342.5C 449.085,333.694 449.752,325.027 451.5,316.5 Z"/></g>
<g><path style="opacity:1" fill="#f8f7f9" d="M 275.5,316.5 C 278.898,316.18 282.232,316.513 285.5,317.5C 282.173,329.296 280.34,341.296 280,353.5C 287.961,355.925 296.128,357.258 304.5,357.5C 307.314,344.321 308.981,330.987 309.5,317.5C 310.833,317.5 312.167,317.5 313.5,317.5C 314.705,332.487 314.705,347.487 313.5,362.5C 306.678,362.953 299.844,363.286 293,363.5C 287.038,363.697 281.204,363.03 275.5,361.5C 274.183,346.5 274.183,331.5 275.5,316.5 Z"/></g>
<g><path style="opacity:1" fill="#6b5f7b" d="M 169.5,321.5 C 170.8,323.223 171.467,325.39 171.5,328C 170.748,337.923 169.415,347.756 167.5,357.5C 159.39,357.099 151.39,355.932 143.5,354C 141.875,344.105 142.875,334.439 146.5,325C 154.257,323.447 161.924,322.28 169.5,321.5 Z"/></g>
<g><path style="opacity:1" fill="#e1dfe5" d="M 45.5,364.5 C 47.8505,365.994 50.3505,367.327 53,368.5C 54.9618,366.902 56.4618,367.236 57.5,369.5C 50.6763,374.732 46.6763,373.065 45.5,364.5 Z"/></g>
<g><path style="opacity:1" fill="#f7f6f8" d="M 213.5,376.5 C 223.518,376.41 233.518,376.743 243.5,377.5C 243.5,378.833 243.5,380.167 243.5,381.5C 233.433,382.44 223.433,383.773 213.5,385.5C 211.357,394.73 210.19,404.064 210,413.5C 220.887,416.844 232.054,418.511 243.5,418.5C 243.5,420.167 243.5,421.833 243.5,423.5C 230.833,423.5 218.167,423.5 205.5,423.5C 204.46,408.849 204.293,394.183 205,379.5C 207.677,377.959 210.51,376.959 213.5,376.5 Z"/></g>
<g><path style="opacity:1" fill="#f9f8f9" d="M 252.5,376.5 C 255.167,376.5 257.833,376.5 260.5,376.5C 257.201,388.959 255.201,401.626 254.5,414.5C 265.674,417.14 277.008,418.473 288.5,418.5C 288.5,419.833 288.5,421.167 288.5,422.5C 275.851,423.322 263.185,423.655 250.5,423.5C 249.419,408.854 249.253,394.188 250,379.5C 250.698,378.309 251.531,377.309 252.5,376.5 Z"/></g>
<g><path style="opacity:1" fill="#f4f3f5" d="M 296.5,376.5 C 299.247,376.187 301.914,376.52 304.5,377.5C 300.446,389.49 298.446,401.824 298.5,414.5C 306.733,416.308 315.066,417.308 323.5,417.5C 326.02,404.296 327.354,390.963 327.5,377.5C 331.664,377.772 333.497,380.106 333,384.5C 333.964,397.581 333.464,410.581 331.5,423.5C 318.92,423.822 306.42,423.489 294,422.5C 292.186,407.525 292.02,392.525 293.5,377.5C 294.791,377.737 295.791,377.404 296.5,376.5 Z"/></g>
<g><path style="opacity:1" fill="#f9f8f9" d="M 343.5,376.5 C 349.5,376.5 355.5,376.5 361.5,376.5C 360.813,383.813 360.479,391.146 360.5,398.5C 366.509,398.299 372.509,397.966 378.5,397.5C 378.665,405.862 378.332,414.195 377.5,422.5C 364.851,423.322 352.185,423.655 339.5,423.5C 338.46,408.849 338.293,394.183 339,379.5C 340.31,378.103 341.81,377.103 343.5,376.5 Z"/></g>
<g><path style="opacity:1" fill="#716681" d="M 353.5,383.5 C 354.5,383.5 355.5,383.5 356.5,383.5C 356.5,388.5 356.5,393.5 356.5,398.5C 352.833,398.5 349.167,398.5 345.5,398.5C 345.464,394.55 346.131,390.717 347.5,387C 349.223,385.251 351.223,384.084 353.5,383.5 Z"/></g>
<g><path style="opacity:1" fill="#6d627e" d="M 347.5,401.5 C 355.525,401.39 363.525,401.724 371.5,402.5C 370.715,407.876 369.715,413.209 368.5,418.5C 360.424,417.418 352.424,415.918 344.5,414C 343.363,410.216 343.363,406.382 344.5,402.5C 345.791,402.737 346.791,402.404 347.5,401.5 Z"/></g>
<g><path style="opacity:1" fill="#a19aac" d="M 77.5,429.5 C 76.8333,429.5 76.5,429.833 76.5,430.5C 74.4946,428.666 72.3279,426.999 70,425.5C 69.205,423.099 68.0383,420.932 66.5,419C 68.807,418.729 69.9736,419.895 70,422.5C 72.3959,425.067 74.8959,427.4 77.5,429.5 Z"/></g>
<g><path style="opacity:1" fill="#e9e7eb" d="M 76.5,430.5 C 76.5,429.833 76.8333,429.5 77.5,429.5C 79.3519,430.089 81.1852,430.756 83,431.5C 83,430.167 83,428.833 83,427.5C 86.2258,429.869 88.3924,432.869 89.5,436.5C 87.1432,436.663 84.8098,436.497 82.5,436C 80.6298,433.96 78.6298,432.127 76.5,430.5 Z"/></g>
<g><path style="opacity:1" fill="#cac6cf" d="M 93.5,444.5 C 94.4959,444.414 95.3292,444.748 96,445.5C 97.3011,447.402 97.9678,449.402 98,451.5C 96.2502,449.266 94.7502,446.932 93.5,444.5 Z"/></g>
<g><path style="opacity:1" fill="#ebeaed" d="M 79.5,456.5 C 75.2933,454.664 73.96,451.664 75.5,447.5C 76.4776,447.977 77.3109,448.643 78,449.5C 78.4396,451.866 78.9396,454.199 79.5,456.5 Z"/></g>
<g><path style="opacity:1" fill="#dedce2" d="M 125.5,493.5 C 127.607,492.532 129.941,492.198 132.5,492.5C 132.5,493.5 132.5,494.5 132.5,495.5C 129.892,495.6 127.558,494.933 125.5,493.5 Z"/></g>
<g><path style="opacity:1" fill="#6e637e" d="M 440.5,517.5 C 441.562,516.425 441.562,515.425 440.5,514.5C 436.625,518.539 432.292,522.039 427.5,525C 417.116,529.197 407.116,533.863 397.5,539C 401.884,533.949 406.884,529.616 412.5,526C 409.23,526.463 406.23,527.796 403.5,530C 401.866,530.494 400.199,530.66 398.5,530.5C 399.467,534.851 397.8,537.185 393.5,537.5C 394.092,534.873 394.425,532.206 394.5,529.5C 390.209,530.93 386.209,532.93 382.5,535.5C 382.215,533.712 382.548,532.045 383.5,530.5C 385.132,529.703 386.632,528.703 388,527.5C 389,527.833 390,528.167 391,528.5C 395.167,526 399.333,523.5 403.5,521C 402.483,519.951 402.316,518.784 403,517.5C 406.031,514.075 409.365,513.741 413,516.5C 415.003,515.017 417.17,513.683 419.5,512.5C 419.909,506.407 422.909,504.407 428.5,506.5C 430.183,505.408 432.016,504.741 434,504.5C 441.992,498.51 450.492,493.344 459.5,489C 461.441,488.257 463.274,488.424 465,489.5C 467.341,486.329 469.841,483.329 472.5,480.5C 473.521,481.002 473.688,481.668 473,482.5C 471.108,484.054 469.608,485.888 468.5,488C 469.921,489.419 470.921,491.086 471.5,493C 469.586,495.248 468.086,497.748 467,500.5C 462.371,503.117 457.871,505.951 453.5,509C 451.964,516.026 447.631,518.86 440.5,517.5 Z"/></g>
<g><path style="opacity:1" fill="#d0ccd4" d="M 452.5,496.5 C 453.873,496.343 455.207,496.51 456.5,497C 454.359,498.308 452.359,499.808 450.5,501.5C 450.167,501.167 449.833,500.833 449.5,500.5C 450.524,499.148 451.524,497.815 452.5,496.5 Z"/></g>
<g><path style="opacity:1" fill="#dfdce1" d="M 437.5,504.5 C 438.376,504.369 439.043,504.702 439.5,505.5C 438.367,509.81 435.7,511.31 431.5,510C 433.996,508.669 435.996,506.836 437.5,504.5 Z"/></g>
<g><path style="opacity:1" fill="#e5e4e8" d="M 171.5,519.5 C 182.011,526.75 193.677,530.584 206.5,531C 211.545,533.181 211.545,535.014 206.5,536.5C 204.664,535.081 202.664,533.914 200.5,533C 191.306,531.412 182.306,529.079 173.5,526C 171.771,524.211 171.104,522.044 171.5,519.5 Z"/></g>
<g><path style="opacity:1" fill="#b3acbb" d="M 188.5,541.5 C 184.1,543.104 179.434,543.771 174.5,543.5C 176.631,542.686 178.964,542.186 181.5,542C 180.328,541.581 179.328,540.915 178.5,540C 178.833,539.833 179.167,539.667 179.5,539.5C 182.276,541.13 185.276,541.797 188.5,541.5 Z"/></g>
<g><path style="opacity:1" fill="#e3e1e6" d="M 214.5,545.5 C 218.123,546.747 221.79,548.081 225.5,549.5C 222.5,550.833 219.5,550.833 216.5,549.5C 215.37,548.378 214.703,547.044 214.5,545.5 Z"/></g>
<g><path style="opacity:1" fill="#dddae0" d="M 369.5,545.5 C 370.675,545.281 371.675,545.614 372.5,546.5C 368.881,552.157 367.881,551.823 369.5,545.5 Z"/></g>
<g><path style="opacity:1" fill="#eae8ec" d="M 278.5,548.5 C 281.722,548.108 284.722,548.608 287.5,550C 285.249,552.867 282.583,555.2 279.5,557C 276.773,557.818 274.106,557.652 271.5,556.5C 272.729,555.719 274.062,555.219 275.5,555C 275.043,554.586 274.709,554.086 274.5,553.5C 275.857,551.814 277.19,550.148 278.5,548.5 Z"/></g>
<g><path style="opacity:1" fill="#c6c1cc" d="M 331.5,567.5 C 319.24,567.992 306.906,568.992 294.5,570.5C 296.277,569.4 298.277,568.566 300.5,568C 310.828,567.5 321.161,567.334 331.5,567.5 Z"/></g>
<g><path style="opacity:1" fill="#cecad3" d="M 372.5,575.5 C 375.397,575.125 378.063,575.625 380.5,577C 377.5,577.667 374.5,577.667 371.5,577C 372.056,576.617 372.389,576.117 372.5,575.5 Z"/></g>
</svg>
